<svg width="46" height="46" viewBox="0 0 46 46" fill="none" xmlns="http://www.w3.org/2000/svg">
<path fill-rule="evenodd" clip-rule="evenodd" d="M41.6814 23.0513C41.6814 33.3408 33.3401 41.6821 23.0506 41.6821C12.7611 41.6821 4.41981 33.3408 4.41981 23.0513C4.41981 12.7618 12.7611 4.42054 23.0506 4.42054C33.3401 4.42054 41.6814 12.7618 41.6814 23.0513ZM45.2301 23.0513C45.2301 35.3007 35.3 45.2308 23.0506 45.2308C10.8012 45.2308 0.871094 35.3007 0.871094 23.0513C0.871094 10.8019 10.8012 0.871826 23.0506 0.871826C35.3 0.871826 45.2301 10.8019 45.2301 23.0513ZM32.3412 23.2642C32.3412 27.363 30.0877 29.6874 27.0181 29.6874C23.9662 29.6874 21.695 27.363 21.695 23.2642C21.695 19.1655 23.9662 16.8411 27.0181 16.8411C30.0877 16.8411 32.3412 19.1655 32.3412 23.2642ZM24.6049 23.2642C24.6049 26.0855 25.5986 27.2565 27.0181 27.2565C28.4553 27.2565 29.4489 26.0855 29.4489 23.2642C29.4489 20.443 28.4553 19.2719 27.0181 19.2719C25.5986 19.2719 24.6049 20.443 24.6049 23.2642ZM14.1788 19.3606V17.054H19.5374V29.4745H16.6629V19.3606H14.1788Z" fill="#333333"/>
</svg>
