<svg width="42" height="48" viewBox="0 0 42 48" fill="none" xmlns="http://www.w3.org/2000/svg">
<path fill-rule="evenodd" clip-rule="evenodd" d="M20.2857 1.04865C20.0294 1.17349 19.8139 1.37256 19.6657 1.62153L19.4385 2.00302V4.9202C19.4385 7.61337 19.4266 7.83296 19.2843 7.77917C19.1996 7.74716 18.3005 7.25963 17.2863 6.69579C16.2722 6.13195 15.3014 5.60021 15.1292 5.51405C14.6915 5.29537 13.8803 5.35902 13.4736 5.64405C13.119 5.89248 12.8284 6.46463 12.8284 6.91402C12.8284 7.34578 13.1226 7.94984 13.4306 8.14999C13.5704 8.24085 14.969 9.0306 16.5386 9.90497L19.3925 11.4948L19.4173 13.388L19.442 15.2812L16.8131 16.7704C15.3673 17.5893 14.1557 18.2521 14.1207 18.2432C14.0857 18.2342 13.3213 17.8103 12.4219 17.3012L10.7867 16.3755L10.8128 12.9782C10.8272 11.1097 10.8047 9.47918 10.7631 9.35487C10.5558 8.73625 9.91211 8.2762 9.24776 8.27204C8.74288 8.26887 8.16865 8.59541 7.9073 9.0344C7.68178 9.413 7.67673 9.46453 7.61821 11.9638C7.58541 13.3629 7.54582 14.5078 7.5302 14.5078C7.51459 14.5078 6.37705 13.8686 5.00232 13.0872C2.66616 11.7594 2.47214 11.6665 2.03322 11.6665C0.998573 11.6665 0.271203 12.554 0.466504 13.5783C0.571962 14.1314 1.12534 14.5489 3.6151 15.954C4.89089 16.674 5.93381 17.2838 5.93271 17.3093C5.9317 17.3347 4.97633 17.9046 3.80976 18.5759C2.64319 19.2471 1.59109 19.91 1.47167 20.049C1.35225 20.1879 1.20673 20.4586 1.14831 20.6505C0.806947 21.7717 1.94145 22.9022 3.07274 22.5683C3.25739 22.5138 4.70809 21.7161 6.29658 20.7955L9.18465 19.1219L9.74143 19.4293C10.0476 19.5982 10.7942 20.0207 11.4005 20.3679L12.5028 20.9993V24.0022V27.005L10.8444 27.946L9.18603 28.887L6.30044 27.2098C4.71341 26.2873 3.26244 25.4875 3.07605 25.4326C1.94136 25.098 0.806488 26.2265 1.14831 27.3495C1.20673 27.5414 1.35243 27.8121 1.47194 27.951C1.59155 28.09 2.64338 28.7529 3.80921 29.4241C4.97504 30.0953 5.93023 30.6659 5.93179 30.6919C5.93335 30.718 4.89291 31.3282 3.61979 32.0479C1.15024 33.444 0.74246 33.7281 0.546976 34.1885C0.0568875 35.3428 1.17109 36.6029 2.39792 36.2818C2.60002 36.2289 3.83061 35.5797 5.13258 34.8389C6.43456 34.0983 7.51303 33.4922 7.52919 33.4922C7.54536 33.4922 7.58541 34.637 7.61821 36.0362C7.67673 38.5355 7.68178 38.587 7.9073 38.9656C8.58084 40.0968 10.343 39.899 10.7631 38.6451C10.8047 38.5208 10.8272 36.8903 10.8128 35.0218L10.7867 31.6245L12.4219 30.6988C13.3213 30.1896 14.0857 29.7657 14.1207 29.7568C14.1557 29.7478 15.3673 30.4107 16.8131 31.2296L19.442 32.7188L19.4173 34.612L19.3925 36.5052L16.5386 38.095C14.969 38.9694 13.5699 39.7593 13.4296 39.8505C13.0671 40.0863 12.7922 40.7424 12.8488 41.2368C12.9431 42.0606 13.5835 42.6228 14.4274 42.6228C14.9227 42.6228 14.8755 42.6446 17.2863 41.3042C18.3005 40.7404 19.1996 40.2528 19.2843 40.2208C19.4266 40.1671 19.4386 40.3875 19.4399 43.0877C19.4415 45.9472 19.4461 46.0208 19.6466 46.3677C19.8905 46.7894 20.5077 47.1429 21.0001 47.1429C21.4926 47.1429 22.1098 46.7894 22.3536 46.3677C22.5542 46.0208 22.5588 45.9472 22.5603 43.0877C22.5617 40.3875 22.5737 40.1671 22.716 40.2208C22.8007 40.2528 23.6998 40.7404 24.714 41.3042C27.1248 42.6446 27.0776 42.6228 27.5728 42.6228C28.4168 42.6228 29.0572 42.0606 29.1515 41.2368C29.2081 40.7424 28.9331 40.0863 28.5707 39.8505C28.4304 39.7593 27.0313 38.9694 25.4616 38.095L22.6077 36.5052L22.583 34.612L22.5583 32.7188L25.1872 31.2296C26.633 30.4107 27.8429 29.7474 27.8759 29.7557C27.9089 29.764 28.6733 30.1863 29.5747 30.6941L31.2136 31.6173L31.1875 35.0182C31.1732 36.8887 31.1955 38.5208 31.2372 38.6451C31.4445 39.2637 32.0882 39.7238 32.7525 39.7279C33.2532 39.7311 33.8317 39.4044 34.0882 38.9736C34.3073 38.6057 34.3146 38.5326 34.377 36.0442C34.4123 34.6407 34.4545 33.4922 34.4708 33.4922C34.4871 33.4922 35.5657 34.0983 36.8677 34.8389C38.1697 35.5797 39.4003 36.2289 39.6024 36.2818C40.8292 36.6029 41.9434 35.3428 41.4533 34.1885C41.2578 33.7281 40.85 33.444 38.3805 32.0479C37.1074 31.3282 36.0669 30.718 36.0685 30.6919C36.0701 30.6659 37.0252 30.0953 38.1911 29.4241C39.3569 28.7529 40.4087 28.09 40.5283 27.951C40.6479 27.8121 40.7935 27.5414 40.852 27.3495C41.1935 26.2276 40.059 25.0979 38.9262 25.432C38.7409 25.4867 37.391 26.2278 35.9266 27.079C34.462 27.9301 33.1572 28.6815 33.0268 28.7485C32.8025 28.8639 32.7018 28.8206 31.1436 27.9371L29.4975 27.0037V24.0014V20.9993L30.5998 20.3679C31.2061 20.0207 31.9527 19.5982 32.2588 19.4293L32.8156 19.1219L35.7037 20.7955C37.2922 21.7161 38.7429 22.5138 38.9275 22.5683C40.0588 22.9022 41.1933 21.7717 40.852 20.6505C40.7935 20.4586 40.648 20.1879 40.5286 20.049C40.4092 19.91 39.3571 19.2471 38.1905 18.5759C37.024 17.9046 36.0686 17.3347 36.0676 17.3093C36.0665 17.2838 37.1095 16.674 38.3852 15.954C40.8749 14.5489 41.4283 14.1314 41.5338 13.5783C41.7291 12.554 41.0017 11.6665 39.9671 11.6665C39.5281 11.6665 39.3341 11.7594 36.998 13.0872C35.6232 13.8686 34.4857 14.5078 34.4701 14.5078C34.4545 14.5078 34.4149 13.3629 34.3821 11.9638C34.3236 9.46453 34.3185 9.413 34.093 9.0344C33.4194 7.9032 31.6573 8.101 31.2372 9.35487C31.1955 9.47918 31.1731 11.1097 31.1875 12.9782L31.2135 16.3755L29.5784 17.3012C28.679 17.8103 27.9146 18.2342 27.8796 18.2432C27.8446 18.2521 26.633 17.5893 25.1872 16.7704L22.5583 15.2812L22.583 13.388L22.6077 11.4948L25.4616 9.90497C27.0313 9.0306 28.4304 8.24067 28.5707 8.14945C28.9331 7.91368 29.2081 7.25755 29.1515 6.76323C29.0572 5.9394 28.4168 5.37719 27.5728 5.37719C27.0776 5.37719 27.1248 5.3554 24.714 6.69579C23.6998 7.25963 22.8007 7.74716 22.716 7.77917C22.5737 7.83296 22.5618 7.61337 22.5618 4.9202V2.00302L22.3334 1.61954C22.0738 1.18362 21.5002 0.857087 20.9941 0.857178C20.8206 0.857178 20.5018 0.943331 20.2857 1.04865ZM23.5884 19.5136L26.1904 20.9938V24V27.0062L23.5953 28.4824L21.0001 29.9587L18.405 28.4824L15.8099 27.0062V23.9999V20.9936L18.3821 19.5209C19.7967 18.7109 20.9615 18.0449 20.9703 18.0408C20.9791 18.0368 22.1572 18.6995 23.5884 19.5136Z" fill="#333333"/>
</svg>
