<svg width="80" height="80" viewBox="0 0 80 80" fill="none" xmlns="http://www.w3.org/2000/svg">
<g clip-path="url(#clip0_202_2279)">
<path fill-rule="evenodd" clip-rule="evenodd" d="M5.08821 0.29183C4.82988 0.452172 3.57944 1.63696 2.30926 2.925C0.111471 5.15358 0 5.29676 0 5.8904C0 6.42602 0.49614 7.33894 3.51118 12.3511C6.10225 16.6586 7.12975 18.2368 7.43254 18.3742C7.68163 18.4873 8.62381 18.5604 9.83198 18.5604H11.8212L21.4885 28.1925L31.1558 37.8246L25.4016 43.5558L19.6474 49.2869L18.4736 49.038C16.668 48.6554 13.2091 48.8102 11.362 49.3566C5.53879 51.0792 1.22368 55.8282 0.167206 61.6773C-0.0980067 63.1456 -0.0350695 66.022 0.297621 67.6274C0.755873 69.8394 1.14853 70.3754 2.3113 70.3754C2.82075 70.3754 3.12463 70.1144 6.32503 66.9283L9.78752 63.4813H11.4327H13.0779L14.8366 65.2385L16.5954 66.9956V68.5486V70.1015L13.0509 73.6449L9.5065 77.1884L9.59683 77.8603C9.7238 78.8035 10.1827 79.137 11.9078 79.5405C17.0972 80.7543 22.4534 79.3717 26.1833 75.8557C28.6621 73.5191 30.1721 70.9263 30.9463 67.6776C31.2906 66.2327 31.3235 63.0829 31.0108 61.4817L30.788 60.3399L35.3945 55.7398L40.0011 51.1396L41.0545 52.2771L42.1078 53.4146L41.5818 53.9637C40.5663 55.0235 40.4527 55.7075 41.1605 56.4967C41.5439 56.9242 41.718 57.0011 42.2696 56.9868C42.8133 56.9724 43.0343 56.8615 43.5781 56.3298L44.2325 55.69L54.3286 66.6251C59.8813 72.6395 64.7384 77.7999 65.122 78.0929C69.4652 81.4091 75.7318 80.2804 78.7423 75.64C79.8251 73.9711 80.0386 73.0479 79.9771 70.3016C79.9276 68.0889 79.8941 67.8626 79.4874 66.9907C79.2472 66.476 78.8245 65.7145 78.548 65.2987C78.2365 64.83 73.8344 60.6901 66.9687 54.4087C60.8764 48.8349 55.892 44.223 55.892 44.1602C55.892 44.0971 56.1378 43.8081 56.4384 43.518C56.7421 43.2248 57.0264 42.7682 57.0789 42.49C57.2527 41.5675 56.5253 40.7183 55.5567 40.7123C55.1014 40.7095 54.8332 40.8462 54.2259 41.3899L53.4653 42.071L52.3365 41.0318L51.2077 39.9927L55.8637 35.3558L60.5198 30.7192L61.7646 30.9756C63.4482 31.3225 66.7293 31.2088 68.4846 30.7426C73.888 29.3076 78.1738 25.0621 79.6781 19.6546C79.9512 18.6721 80.002 18.0466 79.9999 15.678C79.9976 12.8043 79.8125 11.4416 79.2874 10.4297C79.0058 9.88711 78.2316 9.50669 77.6389 9.61961C77.3733 9.67015 76.0455 10.8805 73.8045 13.1149L70.3765 16.5327H68.807H67.2375L65.4788 14.7755L63.72 13.0185V11.4593V9.90037L66.3969 7.25051C69.943 3.74013 70.6087 2.9484 70.6087 2.2409C70.6087 1.33858 70.0069 0.884223 68.2748 0.479156C64.586 -0.383699 60.8143 0.0366543 57.5359 1.67611C56.1306 2.37893 55.3068 2.94622 54.07 4.06284C51.5223 6.36301 49.995 9.0177 49.1393 12.6334C48.867 13.784 48.8719 17.1181 49.148 18.5325L49.371 19.6744L43.5908 25.4346L37.8106 31.1947L28.2206 21.6416L18.6307 12.0884V10.0942C18.6307 8.76924 18.5594 7.93025 18.4185 7.59412C18.2357 7.15833 17.3843 6.59744 12.2703 3.54376C8.77724 1.45806 6.17458 -0.0003119 5.94616 5.00358e-08C5.73261 0.000312 5.34653 0.131643 5.08821 0.29183ZM65.7292 3.2722C65.7005 3.35643 64.6032 4.54356 63.2907 5.91021C61.9783 7.27671 60.8335 8.58097 60.7466 8.80854C60.4954 9.46691 60.5459 13.6388 60.8124 14.2371C60.9353 14.5132 62.1168 15.8444 63.4382 17.1956L65.8406 19.6522H68.7234H71.606L74.3339 16.9617L77.0618 14.2711L76.9849 16.2208C76.9209 17.8457 76.8305 18.3965 76.4426 19.5272C74.9773 23.7978 71.4406 26.9399 67.0914 27.8349C65.5881 28.1443 63.3108 28.1371 61.9196 27.8186C60.0737 27.3961 59.7135 27.3858 59.1458 27.7393C58.2609 28.2903 27.5848 58.9946 27.4762 59.4381C27.4207 59.6641 27.5233 60.4083 27.7102 61.1379C28.8345 65.5247 27.6886 69.8362 24.5269 73.1165C22.7228 74.9882 20.4175 76.1968 17.7757 76.6557C16.3217 76.9084 14.4035 76.9769 14.4035 76.7763C14.4035 76.7109 15.5028 75.5703 16.8462 74.2417C18.1898 72.9131 19.3875 71.6001 19.5077 71.324C19.8111 70.6282 19.8135 66.4813 19.511 65.7769C19.3925 65.5008 18.1682 64.1694 16.7905 62.8184L14.2855 60.3618H11.4192H8.55289L5.84205 63.0466L3.13121 65.7312L3.13387 64.2554C3.14029 60.8166 4.25249 58.1647 6.73209 55.6769C8.64667 53.7559 10.5705 52.6811 13.0092 52.17C14.448 51.8685 16.8623 51.8802 18.2393 52.1954C20.0851 52.6179 20.4454 52.6282 21.013 52.2748C21.2958 52.0987 28.5107 44.985 37.0464 36.4664C47.7578 25.7766 52.597 20.845 52.6664 20.5485C52.7267 20.2913 52.6277 19.6025 52.42 18.8328C51.9464 17.0785 51.9443 14.1859 52.4151 12.4549C53.0082 10.2752 54.2992 8.14112 56.0011 6.52787C57.7058 4.91213 59.6081 3.92683 61.9979 3.42194C63.4489 3.11545 65.815 3.02046 65.7292 3.2722ZM10.9022 6.35147L15.4995 9.11628V11.2205V13.3248L25.555 23.3507L35.6104 33.3767L34.5204 34.4711L33.4303 35.5655L23.4864 25.6663C17.9557 20.1604 13.3469 15.6947 13.1017 15.6041C12.8594 15.5144 11.8355 15.4409 10.8266 15.4409H8.99235L6.29654 10.9389C4.81391 8.46275 3.60089 6.37611 3.60089 6.30187C3.60089 6.17069 6.11352 3.58681 6.24112 3.58681C6.27619 3.58681 8.37363 4.83086 10.9022 6.35147ZM53.308 24.708C52.8144 25.1998 52.6783 25.7841 52.9213 26.3684C53.1755 26.9803 53.6416 27.295 54.2932 27.295C54.9891 27.295 55.3669 27.0745 55.6694 26.4916C56.2103 25.4497 55.5005 24.3315 54.2982 24.3315C53.8597 24.3315 53.5787 24.4383 53.308 24.708ZM39.1661 38.7202C33.6234 44.2319 28.9962 48.9522 28.8836 49.2095C28.4457 50.2108 29.2112 51.3152 30.3428 51.3152C30.8909 51.3152 31.3399 50.8927 40.9928 41.2938C46.5355 35.782 51.1626 31.0618 51.2752 30.8045C51.7131 29.8033 50.9477 28.6988 49.8161 28.6988C49.2679 28.6988 48.8189 29.1213 39.1661 38.7202ZM50.1776 43.2819L51.2735 44.2828L47.8292 47.725L44.3848 51.1673L43.3002 50.0615L42.2157 48.9556L45.5691 45.6121C47.4133 43.7732 48.9581 42.2715 49.0019 42.2747C49.0458 42.2782 49.5748 42.7313 50.1776 43.2819ZM64.4479 56.3269C70.3765 61.7428 75.4234 66.4069 75.6629 66.6919C75.9026 66.9767 76.2901 67.6168 76.524 68.114C76.9021 68.9179 76.9494 69.2003 76.9494 70.6561C76.9494 72.1065 76.9013 72.3959 76.5298 73.1857C75.3489 75.6958 72.4235 77.2575 69.8093 76.7732C68.6871 76.5651 67.7364 76.1334 66.8832 75.4439C66.5439 75.1697 62.1256 70.4534 57.0645 64.963C52.0035 59.4727 47.5397 54.6462 47.145 54.2374L46.4273 53.4943L49.9451 49.9871C51.8797 48.0581 53.509 46.48 53.5657 46.48C53.6224 46.48 58.5192 50.9111 64.4479 56.3269ZM25.0105 52.8874C24.5549 53.1518 24.2282 53.9462 24.3371 54.5249C24.5223 55.5088 25.8782 56.0389 26.7154 55.4548C27.8925 54.6334 27.304 52.7123 25.8786 52.7237C25.5519 52.7263 25.1611 52.7999 25.0105 52.8874ZM54.697 54.2432C54.2574 54.598 54.0133 55.0929 54.0133 55.6295C54.0133 55.9957 55.1867 57.2348 61.4086 63.4385C66.3484 68.3639 68.966 70.8656 69.2923 70.9728C70.266 71.293 71.2349 70.5563 71.2349 69.4961C71.2349 68.8687 71.1677 68.7963 63.7542 61.4149C56.3835 54.0763 56.2643 53.9668 55.6522 53.9702C55.3015 53.9722 54.8855 54.0911 54.697 54.2432Z" fill="url(#paint0_linear_202_2279)" stroke="url(#paint1_linear_202_2279)"/>
</g>
<defs>
<linearGradient id="paint0_linear_202_2279" x1="-3.6443e-08" y1="40" x2="80" y2="40" gradientUnits="userSpaceOnUse">
<stop stop-color="#FDB813"/>
<stop offset="1" stop-color="#FF7246"/>
</linearGradient>
<linearGradient id="paint1_linear_202_2279" x1="-3.6443e-08" y1="40" x2="80" y2="40" gradientUnits="userSpaceOnUse">
<stop stop-color="#FDB813"/>
<stop offset="1" stop-color="#FF7246"/>
</linearGradient>
<clipPath id="clip0_202_2279">
<rect width="80" height="80" fill="white"/>
</clipPath>
</defs>
</svg>
