<svg width="106" height="115" viewBox="0 0 106 115" fill="none" xmlns="http://www.w3.org/2000/svg">
<path fill-rule="evenodd" clip-rule="evenodd" d="M102.22 10.8243C102.22 11.8209 103.028 12.6282 104.024 12.6282C105.021 12.6282 105.828 11.8209 105.828 10.8243C105.828 9.82763 105.021 9.02039 104.024 9.02039C103.028 9.02039 102.22 9.82763 102.22 10.8243Z" fill="#FDB813"/>
<path fill-rule="evenodd" clip-rule="evenodd" d="M92.5992 10.8243C92.5992 11.8209 93.4065 12.6282 94.4031 12.6282C95.3998 12.6282 96.207 11.8209 96.207 10.8243C96.207 9.82763 95.3998 9.02039 94.4031 9.02039C93.4065 9.02039 92.5992 9.82763 92.5992 10.8243Z" fill="#FDB813"/>
<path fill-rule="evenodd" clip-rule="evenodd" d="M83.5807 10.8243C83.5807 11.8209 84.3879 12.6282 85.3846 12.6282C86.3812 12.6282 87.1885 11.8209 87.1885 10.8243C87.1885 9.82763 86.3812 9.02039 85.3846 9.02039C84.3879 9.02039 83.5807 9.82763 83.5807 10.8243Z" fill="#FDB813"/>
<path fill-rule="evenodd" clip-rule="evenodd" d="M74.5602 10.8243C74.5602 11.8209 75.3674 12.6282 76.3641 12.6282C77.3607 12.6282 78.168 11.8209 78.168 10.8243C78.168 9.82763 77.3607 9.02039 76.3641 9.02039C75.3674 9.02039 74.5602 9.82763 74.5602 10.8243Z" fill="#FDB813"/>
<path fill-rule="evenodd" clip-rule="evenodd" d="M64.9401 10.8243C64.9401 11.8209 65.7473 12.6282 66.744 12.6282C67.7406 12.6282 68.5479 11.8209 68.5479 10.8243C68.5479 9.82763 67.7406 9.02039 66.744 9.02039C65.7473 9.02039 64.9401 9.82763 64.9401 10.8243Z" fill="#FDB813"/>
<path fill-rule="evenodd" clip-rule="evenodd" d="M55.9205 10.8243C55.9205 11.8209 56.7278 12.6282 57.7244 12.6282C58.7211 12.6282 59.5283 11.8209 59.5283 10.8243C59.5283 9.82763 58.7211 9.02039 57.7244 9.02039C56.7278 9.02039 55.9205 9.82763 55.9205 10.8243Z" fill="#FDB813"/>
<path fill-rule="evenodd" clip-rule="evenodd" d="M46.3004 10.8243C46.3004 11.8209 47.1077 12.6282 48.1043 12.6282C49.101 12.6282 49.9082 11.8209 49.9082 10.8243C49.9082 9.82763 49.101 9.02039 48.1043 9.02039C47.1077 9.02039 46.3004 9.82763 46.3004 10.8243Z" fill="#FDB813"/>
<path fill-rule="evenodd" clip-rule="evenodd" d="M37.2799 10.8243C37.2799 11.8209 38.0871 12.6282 39.0838 12.6282C40.0805 12.6282 40.8877 11.8209 40.8877 10.8243C40.8877 9.82763 40.0805 9.02039 39.0838 9.02039C38.0871 9.02039 37.2799 9.82763 37.2799 10.8243Z" fill="#FDB813"/>
<path fill-rule="evenodd" clip-rule="evenodd" d="M27.6598 10.8243C27.6598 11.8209 28.467 12.6282 29.4637 12.6282C30.4603 12.6282 31.2676 11.8209 31.2676 10.8243C31.2676 9.82763 30.4603 9.02039 29.4637 9.02039C28.467 9.02039 27.6598 9.82763 27.6598 10.8243Z" fill="#FDB813"/>
<path fill-rule="evenodd" clip-rule="evenodd" d="M18.6403 10.8243C18.6403 11.8209 19.4475 12.6282 20.4442 12.6282C21.4408 12.6282 22.248 11.8209 22.248 10.8243C22.248 9.82763 21.4408 9.02039 20.4442 9.02039C19.4475 9.02039 18.6403 9.82763 18.6403 10.8243Z" fill="#FDB813"/>
<path fill-rule="evenodd" clip-rule="evenodd" d="M9.62073 10.8243C9.62073 11.8209 10.428 12.6282 11.4246 12.6282C12.4213 12.6282 13.2285 11.8209 13.2285 10.8243C13.2285 9.82763 12.4213 9.02039 11.4246 9.02039C10.428 9.02039 9.62073 9.82763 9.62073 10.8243Z" fill="#FDB813"/>
<path fill-rule="evenodd" clip-rule="evenodd" d="M-0.000368595 10.8243C-0.000368595 11.8209 0.806875 12.6282 1.80353 12.6282C2.80018 12.6282 3.60742 11.8209 3.60742 10.8243C3.60742 9.82763 2.80018 9.02039 1.80353 9.02039C0.806875 9.02039 -0.000368595 9.82763 -0.000368595 10.8243Z" fill="#FDB813"/>
<path fill-rule="evenodd" clip-rule="evenodd" d="M102.22 20.4455C102.22 21.4421 103.028 22.2494 104.024 22.2494C105.021 22.2494 105.828 21.4421 105.828 20.4455C105.828 19.4488 105.021 18.6416 104.024 18.6416C103.028 18.6416 102.22 19.4488 102.22 20.4455Z" fill="#FDB813"/>
<path fill-rule="evenodd" clip-rule="evenodd" d="M92.5992 20.4455C92.5992 21.4421 93.4065 22.2494 94.4031 22.2494C95.3998 22.2494 96.207 21.4421 96.207 20.4455C96.207 19.4488 95.3998 18.6416 94.4031 18.6416C93.4065 18.6416 92.5992 19.4488 92.5992 20.4455Z" fill="#FDB813"/>
<path fill-rule="evenodd" clip-rule="evenodd" d="M83.5807 20.4455C83.5807 21.4421 84.3879 22.2494 85.3846 22.2494C86.3812 22.2494 87.1885 21.4421 87.1885 20.4455C87.1885 19.4488 86.3812 18.6416 85.3846 18.6416C84.3879 18.6416 83.5807 19.4488 83.5807 20.4455Z" fill="#FDB813"/>
<path fill-rule="evenodd" clip-rule="evenodd" d="M74.5602 20.4455C74.5602 21.4421 75.3674 22.2494 76.3641 22.2494C77.3607 22.2494 78.168 21.4421 78.168 20.4455C78.168 19.4488 77.3607 18.6416 76.3641 18.6416C75.3674 18.6416 74.5602 19.4488 74.5602 20.4455Z" fill="#FDB813"/>
<path fill-rule="evenodd" clip-rule="evenodd" d="M64.9401 20.4455C64.9401 21.4421 65.7473 22.2494 66.744 22.2494C67.7406 22.2494 68.5479 21.4421 68.5479 20.4455C68.5479 19.4488 67.7406 18.6416 66.744 18.6416C65.7473 18.6416 64.9401 19.4488 64.9401 20.4455Z" fill="#FDB813"/>
<path fill-rule="evenodd" clip-rule="evenodd" d="M55.9205 20.4455C55.9205 21.4421 56.7278 22.2494 57.7244 22.2494C58.7211 22.2494 59.5283 21.4421 59.5283 20.4455C59.5283 19.4488 58.7211 18.6416 57.7244 18.6416C56.7278 18.6416 55.9205 19.4488 55.9205 20.4455Z" fill="#FDB813"/>
<path fill-rule="evenodd" clip-rule="evenodd" d="M46.3004 20.4455C46.3004 21.4421 47.1077 22.2494 48.1043 22.2494C49.101 22.2494 49.9082 21.4421 49.9082 20.4455C49.9082 19.4488 49.101 18.6416 48.1043 18.6416C47.1077 18.6416 46.3004 19.4488 46.3004 20.4455Z" fill="#FDB813"/>
<path fill-rule="evenodd" clip-rule="evenodd" d="M37.2799 20.4455C37.2799 21.4421 38.0871 22.2494 39.0838 22.2494C40.0805 22.2494 40.8877 21.4421 40.8877 20.4455C40.8877 19.4488 40.0805 18.6416 39.0838 18.6416C38.0871 18.6416 37.2799 19.4488 37.2799 20.4455Z" fill="#FDB813"/>
<path fill-rule="evenodd" clip-rule="evenodd" d="M27.6598 20.4455C27.6598 21.4421 28.467 22.2494 29.4637 22.2494C30.4603 22.2494 31.2676 21.4421 31.2676 20.4455C31.2676 19.4488 30.4603 18.6416 29.4637 18.6416C28.467 18.6416 27.6598 19.4488 27.6598 20.4455Z" fill="#FDB813"/>
<path fill-rule="evenodd" clip-rule="evenodd" d="M18.6403 20.4455C18.6403 21.4421 19.4475 22.2494 20.4442 22.2494C21.4408 22.2494 22.248 21.4421 22.248 20.4455C22.248 19.4488 21.4408 18.6416 20.4442 18.6416C19.4475 18.6416 18.6403 19.4488 18.6403 20.4455Z" fill="#FDB813"/>
<path fill-rule="evenodd" clip-rule="evenodd" d="M9.62073 20.4455C9.62073 21.4421 10.428 22.2494 11.4246 22.2494C12.4213 22.2494 13.2285 21.4421 13.2285 20.4455C13.2285 19.4488 12.4213 18.6416 11.4246 18.6416C10.428 18.6416 9.62073 19.4488 9.62073 20.4455Z" fill="#FDB813"/>
<path fill-rule="evenodd" clip-rule="evenodd" d="M-0.000368595 20.4455C-0.000368595 21.4421 0.806875 22.2494 1.80353 22.2494C2.80018 22.2494 3.60742 21.4421 3.60742 20.4455C3.60742 19.4488 2.80018 18.6416 1.80353 18.6416C0.806875 18.6416 -0.000368595 19.4488 -0.000368595 20.4455Z" fill="#FDB813"/>
<path fill-rule="evenodd" clip-rule="evenodd" d="M102.22 29.4626C102.22 30.4592 103.028 31.2665 104.024 31.2665C105.021 31.2665 105.828 30.4592 105.828 29.4626C105.828 28.4659 105.021 27.6587 104.024 27.6587C103.028 27.6587 102.22 28.4659 102.22 29.4626Z" fill="#FDB813"/>
<path fill-rule="evenodd" clip-rule="evenodd" d="M92.5992 29.4626C92.5992 30.4592 93.4065 31.2665 94.4031 31.2665C95.3998 31.2665 96.207 30.4592 96.207 29.4626C96.207 28.4659 95.3998 27.6587 94.4031 27.6587C93.4065 27.6587 92.5992 28.4659 92.5992 29.4626Z" fill="#FDB813"/>
<path fill-rule="evenodd" clip-rule="evenodd" d="M83.5807 29.4626C83.5807 30.4592 84.3879 31.2665 85.3846 31.2665C86.3812 31.2665 87.1885 30.4592 87.1885 29.4626C87.1885 28.4659 86.3812 27.6587 85.3846 27.6587C84.3879 27.6587 83.5807 28.4659 83.5807 29.4626Z" fill="#FDB813"/>
<path fill-rule="evenodd" clip-rule="evenodd" d="M74.5602 29.4626C74.5602 30.4592 75.3674 31.2665 76.3641 31.2665C77.3607 31.2665 78.168 30.4592 78.168 29.4626C78.168 28.4659 77.3607 27.6587 76.3641 27.6587C75.3674 27.6587 74.5602 28.4659 74.5602 29.4626Z" fill="#FDB813"/>
<path fill-rule="evenodd" clip-rule="evenodd" d="M64.9401 29.4626C64.9401 30.4592 65.7473 31.2665 66.744 31.2665C67.7406 31.2665 68.5479 30.4592 68.5479 29.4626C68.5479 28.4659 67.7406 27.6587 66.744 27.6587C65.7473 27.6587 64.9401 28.4659 64.9401 29.4626Z" fill="#FDB813"/>
<path fill-rule="evenodd" clip-rule="evenodd" d="M55.9205 29.4626C55.9205 30.4592 56.7278 31.2665 57.7244 31.2665C58.7211 31.2665 59.5283 30.4592 59.5283 29.4626C59.5283 28.4659 58.7211 27.6587 57.7244 27.6587C56.7278 27.6587 55.9205 28.4659 55.9205 29.4626Z" fill="#FDB813"/>
<path fill-rule="evenodd" clip-rule="evenodd" d="M46.3004 29.4626C46.3004 30.4592 47.1077 31.2665 48.1043 31.2665C49.101 31.2665 49.9082 30.4592 49.9082 29.4626C49.9082 28.4659 49.101 27.6587 48.1043 27.6587C47.1077 27.6587 46.3004 28.4659 46.3004 29.4626Z" fill="#FDB813"/>
<path fill-rule="evenodd" clip-rule="evenodd" d="M37.2799 29.4626C37.2799 30.4592 38.0871 31.2665 39.0838 31.2665C40.0805 31.2665 40.8877 30.4592 40.8877 29.4626C40.8877 28.4659 40.0805 27.6587 39.0838 27.6587C38.0871 27.6587 37.2799 28.4659 37.2799 29.4626Z" fill="#FDB813"/>
<path fill-rule="evenodd" clip-rule="evenodd" d="M27.6598 29.4626C27.6598 30.4592 28.467 31.2665 29.4637 31.2665C30.4603 31.2665 31.2676 30.4592 31.2676 29.4626C31.2676 28.4659 30.4603 27.6587 29.4637 27.6587C28.467 27.6587 27.6598 28.4659 27.6598 29.4626Z" fill="#FDB813"/>
<path fill-rule="evenodd" clip-rule="evenodd" d="M18.6403 29.4626C18.6403 30.4592 19.4475 31.2665 20.4442 31.2665C21.4408 31.2665 22.248 30.4592 22.248 29.4626C22.248 28.4659 21.4408 27.6587 20.4442 27.6587C19.4475 27.6587 18.6403 28.4659 18.6403 29.4626Z" fill="#FDB813"/>
<path fill-rule="evenodd" clip-rule="evenodd" d="M9.62073 29.4626C9.62073 30.4592 10.428 31.2665 11.4246 31.2665C12.4213 31.2665 13.2285 30.4592 13.2285 29.4626C13.2285 28.4659 12.4213 27.6587 11.4246 27.6587C10.428 27.6587 9.62073 28.4659 9.62073 29.4626Z" fill="#FDB813"/>
<path fill-rule="evenodd" clip-rule="evenodd" d="M-0.000368595 29.4626C-0.000368595 30.4592 0.806875 31.2665 1.80353 31.2665C2.80018 31.2665 3.60742 30.4592 3.60742 29.4626C3.60742 28.4659 2.80018 27.6587 1.80353 27.6587C0.806875 27.6587 -0.000368595 28.4659 -0.000368595 29.4626Z" fill="#FDB813"/>
<path fill-rule="evenodd" clip-rule="evenodd" d="M102.22 39.0838C102.22 40.0805 103.028 40.8877 104.024 40.8877C105.021 40.8877 105.828 40.0805 105.828 39.0838C105.828 38.0872 105.021 37.2799 104.024 37.2799C103.028 37.2799 102.22 38.0872 102.22 39.0838Z" fill="#FDB813"/>
<path fill-rule="evenodd" clip-rule="evenodd" d="M92.5992 39.0838C92.5992 40.0805 93.4065 40.8877 94.4031 40.8877C95.3998 40.8877 96.207 40.0805 96.207 39.0838C96.207 38.0872 95.3998 37.2799 94.4031 37.2799C93.4065 37.2799 92.5992 38.0872 92.5992 39.0838Z" fill="#FDB813"/>
<path fill-rule="evenodd" clip-rule="evenodd" d="M83.5807 39.0838C83.5807 40.0805 84.3879 40.8877 85.3846 40.8877C86.3812 40.8877 87.1885 40.0805 87.1885 39.0838C87.1885 38.0872 86.3812 37.2799 85.3846 37.2799C84.3879 37.2799 83.5807 38.0872 83.5807 39.0838Z" fill="#FDB813"/>
<path fill-rule="evenodd" clip-rule="evenodd" d="M74.5602 39.0838C74.5602 40.0805 75.3674 40.8877 76.3641 40.8877C77.3607 40.8877 78.168 40.0805 78.168 39.0838C78.168 38.0872 77.3607 37.2799 76.3641 37.2799C75.3674 37.2799 74.5602 38.0872 74.5602 39.0838Z" fill="#FDB813"/>
<path fill-rule="evenodd" clip-rule="evenodd" d="M64.9401 39.0838C64.9401 40.0805 65.7473 40.8877 66.744 40.8877C67.7406 40.8877 68.5479 40.0805 68.5479 39.0838C68.5479 38.0872 67.7406 37.2799 66.744 37.2799C65.7473 37.2799 64.9401 38.0872 64.9401 39.0838Z" fill="#FDB813"/>
<path fill-rule="evenodd" clip-rule="evenodd" d="M55.9205 39.0838C55.9205 40.0805 56.7278 40.8877 57.7244 40.8877C58.7211 40.8877 59.5283 40.0805 59.5283 39.0838C59.5283 38.0872 58.7211 37.2799 57.7244 37.2799C56.7278 37.2799 55.9205 38.0872 55.9205 39.0838Z" fill="#FDB813"/>
<path fill-rule="evenodd" clip-rule="evenodd" d="M46.3004 39.0838C46.3004 40.0805 47.1077 40.8877 48.1043 40.8877C49.101 40.8877 49.9082 40.0805 49.9082 39.0838C49.9082 38.0872 49.101 37.2799 48.1043 37.2799C47.1077 37.2799 46.3004 38.0872 46.3004 39.0838Z" fill="#FDB813"/>
<path fill-rule="evenodd" clip-rule="evenodd" d="M37.2799 39.0838C37.2799 40.0805 38.0871 40.8877 39.0838 40.8877C40.0805 40.8877 40.8877 40.0805 40.8877 39.0838C40.8877 38.0872 40.0805 37.2799 39.0838 37.2799C38.0871 37.2799 37.2799 38.0872 37.2799 39.0838Z" fill="#FDB813"/>
<path fill-rule="evenodd" clip-rule="evenodd" d="M27.6598 39.0838C27.6598 40.0805 28.467 40.8877 29.4637 40.8877C30.4603 40.8877 31.2676 40.0805 31.2676 39.0838C31.2676 38.0872 30.4603 37.2799 29.4637 37.2799C28.467 37.2799 27.6598 38.0872 27.6598 39.0838Z" fill="#FDB813"/>
<path fill-rule="evenodd" clip-rule="evenodd" d="M18.6403 39.0838C18.6403 40.0805 19.4475 40.8877 20.4442 40.8877C21.4408 40.8877 22.248 40.0805 22.248 39.0838C22.248 38.0872 21.4408 37.2799 20.4442 37.2799C19.4475 37.2799 18.6403 38.0872 18.6403 39.0838Z" fill="#FDB813"/>
<path fill-rule="evenodd" clip-rule="evenodd" d="M9.62073 39.0838C9.62073 40.0805 10.428 40.8877 11.4246 40.8877C12.4213 40.8877 13.2285 40.0805 13.2285 39.0838C13.2285 38.0872 12.4213 37.2799 11.4246 37.2799C10.428 37.2799 9.62073 38.0872 9.62073 39.0838Z" fill="#FDB813"/>
<path fill-rule="evenodd" clip-rule="evenodd" d="M-0.000368595 39.0838C-0.000368595 40.0805 0.806875 40.8877 1.80353 40.8877C2.80018 40.8877 3.60742 40.0805 3.60742 39.0838C3.60742 38.0872 2.80018 37.2799 1.80353 37.2799C0.806875 37.2799 -0.000368595 38.0872 -0.000368595 39.0838Z" fill="#FDB813"/>
<path fill-rule="evenodd" clip-rule="evenodd" d="M102.22 48.1042C102.22 49.1008 103.028 49.9081 104.024 49.9081C105.021 49.9081 105.828 49.1008 105.828 48.1042C105.828 47.1075 105.021 46.3003 104.024 46.3003C103.028 46.3003 102.22 47.1075 102.22 48.1042Z" fill="#FDB813"/>
<path fill-rule="evenodd" clip-rule="evenodd" d="M92.5992 48.1042C92.5992 49.1008 93.4065 49.9081 94.4031 49.9081C95.3998 49.9081 96.207 49.1008 96.207 48.1042C96.207 47.1075 95.3998 46.3003 94.4031 46.3003C93.4065 46.3003 92.5992 47.1075 92.5992 48.1042Z" fill="#FDB813"/>
<path fill-rule="evenodd" clip-rule="evenodd" d="M83.5797 48.1042C83.5797 49.1008 84.387 49.9081 85.3836 49.9081C86.3803 49.9081 87.1875 49.1008 87.1875 48.1042C87.1875 47.1075 86.3803 46.3003 85.3836 46.3003C84.387 46.3003 83.5797 47.1075 83.5797 48.1042Z" fill="#FDB813"/>
<path fill-rule="evenodd" clip-rule="evenodd" d="M74.5612 48.1042C74.5612 49.1008 75.3684 49.9081 76.3651 49.9081C77.3617 49.9081 78.1689 49.1008 78.1689 48.1042C78.1689 47.1075 77.3617 46.3003 76.3651 46.3003C75.3684 46.3003 74.5612 47.1075 74.5612 48.1042Z" fill="#FDB813"/>
<path fill-rule="evenodd" clip-rule="evenodd" d="M64.9401 48.1042C64.9401 49.1008 65.7473 49.9081 66.744 49.9081C67.7406 49.9081 68.5479 49.1008 68.5479 48.1042C68.5479 47.1075 67.7406 46.3003 66.744 46.3003C65.7473 46.3003 64.9401 47.1075 64.9401 48.1042Z" fill="#FDB813"/>
<path fill-rule="evenodd" clip-rule="evenodd" d="M55.9205 48.1042C55.9205 49.1008 56.7278 49.9081 57.7244 49.9081C58.7211 49.9081 59.5283 49.1008 59.5283 48.1042C59.5283 47.1075 58.7211 46.3003 57.7244 46.3003C56.7278 46.3003 55.9205 47.1075 55.9205 48.1042Z" fill="#FDB813"/>
<path fill-rule="evenodd" clip-rule="evenodd" d="M46.3004 48.1042C46.3004 49.1008 47.1077 49.9081 48.1043 49.9081C49.101 49.9081 49.9082 49.1008 49.9082 48.1042C49.9082 47.1075 49.101 46.3003 48.1043 46.3003C47.1077 46.3003 46.3004 47.1075 46.3004 48.1042Z" fill="#FDB813"/>
<path fill-rule="evenodd" clip-rule="evenodd" d="M37.2789 48.1042C37.2789 49.1008 38.0862 49.9081 39.0828 49.9081C40.0795 49.9081 40.8867 49.1008 40.8867 48.1042C40.8867 47.1075 40.0795 46.3003 39.0828 46.3003C38.0862 46.3003 37.2789 47.1075 37.2789 48.1042Z" fill="#FDB813"/>
<path fill-rule="evenodd" clip-rule="evenodd" d="M27.6598 48.1042C27.6598 49.1008 28.467 49.9081 29.4637 49.9081C30.4603 49.9081 31.2676 49.1008 31.2676 48.1042C31.2676 47.1075 30.4603 46.3003 29.4637 46.3003C28.467 46.3003 27.6598 47.1075 27.6598 48.1042Z" fill="#FDB813"/>
<path fill-rule="evenodd" clip-rule="evenodd" d="M18.6403 48.1042C18.6403 49.1008 19.4475 49.9081 20.4442 49.9081C21.4408 49.9081 22.248 49.1008 22.248 48.1042C22.248 47.1075 21.4408 46.3003 20.4442 46.3003C19.4475 46.3003 18.6403 47.1075 18.6403 48.1042Z" fill="#FDB813"/>
<path fill-rule="evenodd" clip-rule="evenodd" d="M9.62073 48.1042C9.62073 49.1008 10.428 49.9081 11.4246 49.9081C12.4213 49.9081 13.2285 49.1008 13.2285 48.1042C13.2285 47.1075 12.4213 46.3003 11.4246 46.3003C10.428 46.3003 9.62073 47.1075 9.62073 48.1042Z" fill="#FDB813"/>
<path fill-rule="evenodd" clip-rule="evenodd" d="M-0.000368595 48.1042C-0.000368595 49.1008 0.806875 49.9081 1.80353 49.9081C2.80018 49.9081 3.60742 49.1008 3.60742 48.1042C3.60742 47.1075 2.80018 46.3003 1.80353 46.3003C0.806875 46.3003 -0.000368595 47.1075 -0.000368595 48.1042Z" fill="#FDB813"/>
<path fill-rule="evenodd" clip-rule="evenodd" d="M102.22 57.7247C102.22 58.7213 103.028 59.5286 104.024 59.5286C105.021 59.5286 105.828 58.7213 105.828 57.7247C105.828 56.728 105.021 55.9208 104.024 55.9208C103.028 55.9208 102.22 56.728 102.22 57.7247Z" fill="#FDB813"/>
<path fill-rule="evenodd" clip-rule="evenodd" d="M92.5992 57.7247C92.5992 58.7213 93.4065 59.5286 94.4031 59.5286C95.3998 59.5286 96.207 58.7213 96.207 57.7247C96.207 56.728 95.3998 55.9208 94.4031 55.9208C93.4065 55.9208 92.5992 56.728 92.5992 57.7247Z" fill="#FDB813"/>
<path fill-rule="evenodd" clip-rule="evenodd" d="M83.5797 57.7247C83.5797 58.7213 84.387 59.5286 85.3836 59.5286C86.3803 59.5286 87.1875 58.7213 87.1875 57.7247C87.1875 56.728 86.3803 55.9208 85.3836 55.9208C84.387 55.9208 83.5797 56.728 83.5797 57.7247Z" fill="#FDB813"/>
<path fill-rule="evenodd" clip-rule="evenodd" d="M74.5612 57.7247C74.5612 58.7213 75.3684 59.5286 76.3651 59.5286C77.3617 59.5286 78.1689 58.7213 78.1689 57.7247C78.1689 56.728 77.3617 55.9208 76.3651 55.9208C75.3684 55.9208 74.5612 56.728 74.5612 57.7247Z" fill="#FDB813"/>
<path fill-rule="evenodd" clip-rule="evenodd" d="M64.9401 57.7247C64.9401 58.7213 65.7473 59.5286 66.744 59.5286C67.7406 59.5286 68.5479 58.7213 68.5479 57.7247C68.5479 56.728 67.7406 55.9208 66.744 55.9208C65.7473 55.9208 64.9401 56.728 64.9401 57.7247Z" fill="#FDB813"/>
<path fill-rule="evenodd" clip-rule="evenodd" d="M55.9205 57.7247C55.9205 58.7213 56.7278 59.5286 57.7244 59.5286C58.7211 59.5286 59.5283 58.7213 59.5283 57.7247C59.5283 56.728 58.7211 55.9208 57.7244 55.9208C56.7278 55.9208 55.9205 56.728 55.9205 57.7247Z" fill="#FDB813"/>
<path fill-rule="evenodd" clip-rule="evenodd" d="M46.3004 57.7247C46.3004 58.7213 47.1077 59.5286 48.1043 59.5286C49.101 59.5286 49.9082 58.7213 49.9082 57.7247C49.9082 56.728 49.101 55.9208 48.1043 55.9208C47.1077 55.9208 46.3004 56.728 46.3004 57.7247Z" fill="#FDB813"/>
<path fill-rule="evenodd" clip-rule="evenodd" d="M37.2789 57.7247C37.2789 58.7213 38.0862 59.5286 39.0828 59.5286C40.0795 59.5286 40.8867 58.7213 40.8867 57.7247C40.8867 56.728 40.0795 55.9208 39.0828 55.9208C38.0862 55.9208 37.2789 56.728 37.2789 57.7247Z" fill="#FDB813"/>
<path fill-rule="evenodd" clip-rule="evenodd" d="M27.6598 57.7247C27.6598 58.7213 28.467 59.5286 29.4637 59.5286C30.4603 59.5286 31.2676 58.7213 31.2676 57.7247C31.2676 56.728 30.4603 55.9208 29.4637 55.9208C28.467 55.9208 27.6598 56.728 27.6598 57.7247Z" fill="#FDB813"/>
<path fill-rule="evenodd" clip-rule="evenodd" d="M18.6403 57.7247C18.6403 58.7213 19.4475 59.5286 20.4442 59.5286C21.4408 59.5286 22.248 58.7213 22.248 57.7247C22.248 56.728 21.4408 55.9208 20.4442 55.9208C19.4475 55.9208 18.6403 56.728 18.6403 57.7247Z" fill="#FDB813"/>
<path fill-rule="evenodd" clip-rule="evenodd" d="M9.62073 57.7247C9.62073 58.7213 10.428 59.5286 11.4246 59.5286C12.4213 59.5286 13.2285 58.7213 13.2285 57.7247C13.2285 56.728 12.4213 55.9208 11.4246 55.9208C10.428 55.9208 9.62073 56.728 9.62073 57.7247Z" fill="#FDB813"/>
<path fill-rule="evenodd" clip-rule="evenodd" d="M-0.000368595 57.7247C-0.000368595 58.7213 0.806875 59.5286 1.80353 59.5286C2.80018 59.5286 3.60742 58.7213 3.60742 57.7247C3.60742 56.728 2.80018 55.9208 1.80353 55.9208C0.806875 55.9208 -0.000368595 56.728 -0.000368595 57.7247Z" fill="#FDB813"/>
<path fill-rule="evenodd" clip-rule="evenodd" d="M102.22 66.7447C102.22 67.7413 103.028 68.5486 104.024 68.5486C105.021 68.5486 105.828 67.7413 105.828 66.7447C105.828 65.748 105.021 64.9408 104.024 64.9408C103.028 64.9408 102.22 65.748 102.22 66.7447Z" fill="#FDB813"/>
<path fill-rule="evenodd" clip-rule="evenodd" d="M92.5992 66.7447C92.5992 67.7413 93.4065 68.5486 94.4031 68.5486C95.3998 68.5486 96.207 67.7413 96.207 66.7447C96.207 65.748 95.3998 64.9408 94.4031 64.9408C93.4065 64.9408 92.5992 65.748 92.5992 66.7447Z" fill="#FDB813"/>
<path fill-rule="evenodd" clip-rule="evenodd" d="M83.5807 66.7447C83.5807 67.7413 84.3879 68.5486 85.3846 68.5486C86.3812 68.5486 87.1885 67.7413 87.1885 66.7447C87.1885 65.748 86.3812 64.9408 85.3846 64.9408C84.3879 64.9408 83.5807 65.748 83.5807 66.7447Z" fill="#FDB813"/>
<path fill-rule="evenodd" clip-rule="evenodd" d="M74.5602 66.7447C74.5602 67.7413 75.3674 68.5486 76.3641 68.5486C77.3607 68.5486 78.168 67.7413 78.168 66.7447C78.168 65.748 77.3607 64.9408 76.3641 64.9408C75.3674 64.9408 74.5602 65.748 74.5602 66.7447Z" fill="#FDB813"/>
<path fill-rule="evenodd" clip-rule="evenodd" d="M64.9401 66.7447C64.9401 67.7413 65.7473 68.5486 66.744 68.5486C67.7406 68.5486 68.5479 67.7413 68.5479 66.7447C68.5479 65.748 67.7406 64.9408 66.744 64.9408C65.7473 64.9408 64.9401 65.748 64.9401 66.7447Z" fill="#FDB813"/>
<path fill-rule="evenodd" clip-rule="evenodd" d="M55.9205 66.7447C55.9205 67.7413 56.7278 68.5486 57.7244 68.5486C58.7211 68.5486 59.5283 67.7413 59.5283 66.7447C59.5283 65.748 58.7211 64.9408 57.7244 64.9408C56.7278 64.9408 55.9205 65.748 55.9205 66.7447Z" fill="#FDB813"/>
<path fill-rule="evenodd" clip-rule="evenodd" d="M46.3004 66.7447C46.3004 67.7413 47.1077 68.5486 48.1043 68.5486C49.101 68.5486 49.9082 67.7413 49.9082 66.7447C49.9082 65.748 49.101 64.9408 48.1043 64.9408C47.1077 64.9408 46.3004 65.748 46.3004 66.7447Z" fill="#FDB813"/>
<path fill-rule="evenodd" clip-rule="evenodd" d="M37.2799 66.7447C37.2799 67.7413 38.0871 68.5486 39.0838 68.5486C40.0805 68.5486 40.8877 67.7413 40.8877 66.7447C40.8877 65.748 40.0805 64.9408 39.0838 64.9408C38.0871 64.9408 37.2799 65.748 37.2799 66.7447Z" fill="#FDB813"/>
<path fill-rule="evenodd" clip-rule="evenodd" d="M27.6598 66.7447C27.6598 67.7413 28.467 68.5486 29.4637 68.5486C30.4603 68.5486 31.2676 67.7413 31.2676 66.7447C31.2676 65.748 30.4603 64.9408 29.4637 64.9408C28.467 64.9408 27.6598 65.748 27.6598 66.7447Z" fill="#FDB813"/>
<path fill-rule="evenodd" clip-rule="evenodd" d="M18.6403 66.7447C18.6403 67.7413 19.4475 68.5486 20.4442 68.5486C21.4408 68.5486 22.248 67.7413 22.248 66.7447C22.248 65.748 21.4408 64.9408 20.4442 64.9408C19.4475 64.9408 18.6403 65.748 18.6403 66.7447Z" fill="#FDB813"/>
<path fill-rule="evenodd" clip-rule="evenodd" d="M9.62073 66.7447C9.62073 67.7413 10.428 68.5486 11.4246 68.5486C12.4213 68.5486 13.2285 67.7413 13.2285 66.7447C13.2285 65.748 12.4213 64.9408 11.4246 64.9408C10.428 64.9408 9.62073 65.748 9.62073 66.7447Z" fill="#FDB813"/>
<path fill-rule="evenodd" clip-rule="evenodd" d="M-0.000368595 66.7447C-0.000368595 67.7413 0.806875 68.5486 1.80353 68.5486C2.80018 68.5486 3.60742 67.7413 3.60742 66.7447C3.60742 65.748 2.80018 64.9408 1.80353 64.9408C0.806875 64.9408 -0.000368595 65.748 -0.000368595 66.7447Z" fill="#FDB813"/>
<path fill-rule="evenodd" clip-rule="evenodd" d="M102.22 75.7625C102.22 76.7592 103.028 77.5664 104.024 77.5664C105.021 77.5664 105.828 76.7592 105.828 75.7625C105.828 74.7659 105.021 73.9586 104.024 73.9586C103.028 73.9586 102.22 74.7659 102.22 75.7625Z" fill="#FDB813"/>
<path fill-rule="evenodd" clip-rule="evenodd" d="M92.5992 75.7625C92.5992 76.7592 93.4065 77.5664 94.4031 77.5664C95.3998 77.5664 96.207 76.7592 96.207 75.7625C96.207 74.7659 95.3998 73.9586 94.4031 73.9586C93.4065 73.9586 92.5992 74.7659 92.5992 75.7625Z" fill="#FDB813"/>
<path fill-rule="evenodd" clip-rule="evenodd" d="M83.5807 75.7625C83.5807 76.7592 84.3879 77.5664 85.3846 77.5664C86.3812 77.5664 87.1885 76.7592 87.1885 75.7625C87.1885 74.7659 86.3812 73.9586 85.3846 73.9586C84.3879 73.9586 83.5807 74.7659 83.5807 75.7625Z" fill="#FDB813"/>
<path fill-rule="evenodd" clip-rule="evenodd" d="M74.5602 75.7625C74.5602 76.7592 75.3674 77.5664 76.3641 77.5664C77.3607 77.5664 78.168 76.7592 78.168 75.7625C78.168 74.7659 77.3607 73.9586 76.3641 73.9586C75.3674 73.9586 74.5602 74.7659 74.5602 75.7625Z" fill="#FDB813"/>
<path fill-rule="evenodd" clip-rule="evenodd" d="M64.9401 75.7625C64.9401 76.7592 65.7473 77.5664 66.744 77.5664C67.7406 77.5664 68.5479 76.7592 68.5479 75.7625C68.5479 74.7659 67.7406 73.9586 66.744 73.9586C65.7473 73.9586 64.9401 74.7659 64.9401 75.7625Z" fill="#FDB813"/>
<path fill-rule="evenodd" clip-rule="evenodd" d="M55.9205 75.7625C55.9205 76.7592 56.7278 77.5664 57.7244 77.5664C58.7211 77.5664 59.5283 76.7592 59.5283 75.7625C59.5283 74.7659 58.7211 73.9586 57.7244 73.9586C56.7278 73.9586 55.9205 74.7659 55.9205 75.7625Z" fill="#FDB813"/>
<path fill-rule="evenodd" clip-rule="evenodd" d="M46.3004 75.7625C46.3004 76.7592 47.1077 77.5664 48.1043 77.5664C49.101 77.5664 49.9082 76.7592 49.9082 75.7625C49.9082 74.7659 49.101 73.9586 48.1043 73.9586C47.1077 73.9586 46.3004 74.7659 46.3004 75.7625Z" fill="#FDB813"/>
<path fill-rule="evenodd" clip-rule="evenodd" d="M37.2799 75.7625C37.2799 76.7592 38.0871 77.5664 39.0838 77.5664C40.0805 77.5664 40.8877 76.7592 40.8877 75.7625C40.8877 74.7659 40.0805 73.9586 39.0838 73.9586C38.0871 73.9586 37.2799 74.7659 37.2799 75.7625Z" fill="#FDB813"/>
<path fill-rule="evenodd" clip-rule="evenodd" d="M27.6598 75.7625C27.6598 76.7592 28.467 77.5664 29.4637 77.5664C30.4603 77.5664 31.2676 76.7592 31.2676 75.7625C31.2676 74.7659 30.4603 73.9586 29.4637 73.9586C28.467 73.9586 27.6598 74.7659 27.6598 75.7625Z" fill="#FDB813"/>
<path fill-rule="evenodd" clip-rule="evenodd" d="M18.6403 75.7625C18.6403 76.7592 19.4475 77.5664 20.4442 77.5664C21.4408 77.5664 22.248 76.7592 22.248 75.7625C22.248 74.7659 21.4408 73.9586 20.4442 73.9586C19.4475 73.9586 18.6403 74.7659 18.6403 75.7625Z" fill="#FDB813"/>
<path fill-rule="evenodd" clip-rule="evenodd" d="M9.62073 75.7625C9.62073 76.7592 10.428 77.5664 11.4246 77.5664C12.4213 77.5664 13.2285 76.7592 13.2285 75.7625C13.2285 74.7659 12.4213 73.9586 11.4246 73.9586C10.428 73.9586 9.62073 74.7659 9.62073 75.7625Z" fill="#FDB813"/>
<path fill-rule="evenodd" clip-rule="evenodd" d="M-0.000368595 75.7625C-0.000368595 76.7592 0.806875 77.5664 1.80353 77.5664C2.80018 77.5664 3.60742 76.7592 3.60742 75.7625C3.60742 74.7659 2.80018 73.9586 1.80353 73.9586C0.806875 73.9586 -0.000368595 74.7659 -0.000368595 75.7625Z" fill="#FDB813"/>
<path fill-rule="evenodd" clip-rule="evenodd" d="M102.22 85.3837C102.22 86.3804 103.028 87.1876 104.024 87.1876C105.021 87.1876 105.828 86.3804 105.828 85.3837C105.828 84.3871 105.021 83.5798 104.024 83.5798C103.028 83.5798 102.22 84.3871 102.22 85.3837Z" fill="#FDB813"/>
<path fill-rule="evenodd" clip-rule="evenodd" d="M92.5992 85.3837C92.5992 86.3804 93.4065 87.1876 94.4031 87.1876C95.3998 87.1876 96.207 86.3804 96.207 85.3837C96.207 84.3871 95.3998 83.5798 94.4031 83.5798C93.4065 83.5798 92.5992 84.3871 92.5992 85.3837Z" fill="#FDB813"/>
<path fill-rule="evenodd" clip-rule="evenodd" d="M83.5807 85.3837C83.5807 86.3804 84.3879 87.1876 85.3846 87.1876C86.3812 87.1876 87.1885 86.3804 87.1885 85.3837C87.1885 84.3871 86.3812 83.5798 85.3846 83.5798C84.3879 83.5798 83.5807 84.3871 83.5807 85.3837Z" fill="#FDB813"/>
<path fill-rule="evenodd" clip-rule="evenodd" d="M74.5602 85.3837C74.5602 86.3804 75.3674 87.1876 76.3641 87.1876C77.3607 87.1876 78.168 86.3804 78.168 85.3837C78.168 84.3871 77.3607 83.5798 76.3641 83.5798C75.3674 83.5798 74.5602 84.3871 74.5602 85.3837Z" fill="#FDB813"/>
<path fill-rule="evenodd" clip-rule="evenodd" d="M64.9401 85.3837C64.9401 86.3804 65.7473 87.1876 66.744 87.1876C67.7406 87.1876 68.5479 86.3804 68.5479 85.3837C68.5479 84.3871 67.7406 83.5798 66.744 83.5798C65.7473 83.5798 64.9401 84.3871 64.9401 85.3837Z" fill="#FDB813"/>
<path fill-rule="evenodd" clip-rule="evenodd" d="M55.9205 85.3837C55.9205 86.3804 56.7278 87.1876 57.7244 87.1876C58.7211 87.1876 59.5283 86.3804 59.5283 85.3837C59.5283 84.3871 58.7211 83.5798 57.7244 83.5798C56.7278 83.5798 55.9205 84.3871 55.9205 85.3837Z" fill="#FDB813"/>
<path fill-rule="evenodd" clip-rule="evenodd" d="M46.3004 85.3837C46.3004 86.3804 47.1077 87.1876 48.1043 87.1876C49.101 87.1876 49.9082 86.3804 49.9082 85.3837C49.9082 84.3871 49.101 83.5798 48.1043 83.5798C47.1077 83.5798 46.3004 84.3871 46.3004 85.3837Z" fill="#FDB813"/>
<path fill-rule="evenodd" clip-rule="evenodd" d="M37.2799 85.3837C37.2799 86.3804 38.0871 87.1876 39.0838 87.1876C40.0805 87.1876 40.8877 86.3804 40.8877 85.3837C40.8877 84.3871 40.0805 83.5798 39.0838 83.5798C38.0871 83.5798 37.2799 84.3871 37.2799 85.3837Z" fill="#FDB813"/>
<path fill-rule="evenodd" clip-rule="evenodd" d="M27.6598 85.3837C27.6598 86.3804 28.467 87.1876 29.4637 87.1876C30.4603 87.1876 31.2676 86.3804 31.2676 85.3837C31.2676 84.3871 30.4603 83.5798 29.4637 83.5798C28.467 83.5798 27.6598 84.3871 27.6598 85.3837Z" fill="#FDB813"/>
<path fill-rule="evenodd" clip-rule="evenodd" d="M18.6403 85.3837C18.6403 86.3804 19.4475 87.1876 20.4442 87.1876C21.4408 87.1876 22.248 86.3804 22.248 85.3837C22.248 84.3871 21.4408 83.5798 20.4442 83.5798C19.4475 83.5798 18.6403 84.3871 18.6403 85.3837Z" fill="#FDB813"/>
<path fill-rule="evenodd" clip-rule="evenodd" d="M9.62073 85.3837C9.62073 86.3804 10.428 87.1876 11.4246 87.1876C12.4213 87.1876 13.2285 86.3804 13.2285 85.3837C13.2285 84.3871 12.4213 83.5798 11.4246 83.5798C10.428 83.5798 9.62073 84.3871 9.62073 85.3837Z" fill="#FDB813"/>
<path fill-rule="evenodd" clip-rule="evenodd" d="M-0.000368595 85.3837C-0.000368595 86.3804 0.806875 87.1876 1.80353 87.1876C2.80018 87.1876 3.60742 86.3804 3.60742 85.3837C3.60742 84.3871 2.80018 83.5798 1.80353 83.5798C0.806875 83.5798 -0.000368595 84.3871 -0.000368595 85.3837Z" fill="#FDB813"/>
<path fill-rule="evenodd" clip-rule="evenodd" d="M102.22 94.4037C102.22 95.4004 103.028 96.2076 104.024 96.2076C105.021 96.2076 105.828 95.4004 105.828 94.4037C105.828 93.4071 105.021 92.5999 104.024 92.5999C103.028 92.5999 102.22 93.4071 102.22 94.4037Z" fill="#FDB813"/>
<path fill-rule="evenodd" clip-rule="evenodd" d="M92.5992 94.4037C92.5992 95.4004 93.4065 96.2076 94.4031 96.2076C95.3998 96.2076 96.207 95.4004 96.207 94.4037C96.207 93.4071 95.3998 92.5999 94.4031 92.5999C93.4065 92.5999 92.5992 93.4071 92.5992 94.4037Z" fill="#FDB813"/>
<path fill-rule="evenodd" clip-rule="evenodd" d="M83.5797 94.4037C83.5797 95.4004 84.387 96.2076 85.3836 96.2076C86.3803 96.2076 87.1875 95.4004 87.1875 94.4037C87.1875 93.4071 86.3803 92.5999 85.3836 92.5999C84.387 92.5999 83.5797 93.4071 83.5797 94.4037Z" fill="#FDB813"/>
<path fill-rule="evenodd" clip-rule="evenodd" d="M74.5612 94.4037C74.5612 95.4004 75.3684 96.2076 76.3651 96.2076C77.3617 96.2076 78.1689 95.4004 78.1689 94.4037C78.1689 93.4071 77.3617 92.5999 76.3651 92.5999C75.3684 92.5999 74.5612 93.4071 74.5612 94.4037Z" fill="#FDB813"/>
<path fill-rule="evenodd" clip-rule="evenodd" d="M64.9401 94.4037C64.9401 95.4004 65.7473 96.2076 66.744 96.2076C67.7406 96.2076 68.5479 95.4004 68.5479 94.4037C68.5479 93.4071 67.7406 92.5999 66.744 92.5999C65.7473 92.5999 64.9401 93.4071 64.9401 94.4037Z" fill="#FDB813"/>
<path fill-rule="evenodd" clip-rule="evenodd" d="M55.9205 94.4037C55.9205 95.4004 56.7278 96.2076 57.7244 96.2076C58.7211 96.2076 59.5283 95.4004 59.5283 94.4037C59.5283 93.4071 58.7211 92.5999 57.7244 92.5999C56.7278 92.5999 55.9205 93.4071 55.9205 94.4037Z" fill="#FDB813"/>
<path fill-rule="evenodd" clip-rule="evenodd" d="M46.3004 94.4037C46.3004 95.4004 47.1077 96.2076 48.1043 96.2076C49.101 96.2076 49.9082 95.4004 49.9082 94.4037C49.9082 93.4071 49.101 92.5999 48.1043 92.5999C47.1077 92.5999 46.3004 93.4071 46.3004 94.4037Z" fill="#FDB813"/>
<path fill-rule="evenodd" clip-rule="evenodd" d="M37.2789 94.4037C37.2789 95.4004 38.0862 96.2076 39.0828 96.2076C40.0795 96.2076 40.8867 95.4004 40.8867 94.4037C40.8867 93.4071 40.0795 92.5999 39.0828 92.5999C38.0862 92.5999 37.2789 93.4071 37.2789 94.4037Z" fill="#FDB813"/>
<path fill-rule="evenodd" clip-rule="evenodd" d="M27.6598 94.4037C27.6598 95.4004 28.467 96.2076 29.4637 96.2076C30.4603 96.2076 31.2676 95.4004 31.2676 94.4037C31.2676 93.4071 30.4603 92.5999 29.4637 92.5999C28.467 92.5999 27.6598 93.4071 27.6598 94.4037Z" fill="#FDB813"/>
<path fill-rule="evenodd" clip-rule="evenodd" d="M18.6403 94.4037C18.6403 95.4004 19.4475 96.2076 20.4442 96.2076C21.4408 96.2076 22.248 95.4004 22.248 94.4037C22.248 93.4071 21.4408 92.5999 20.4442 92.5999C19.4475 92.5999 18.6403 93.4071 18.6403 94.4037Z" fill="#FDB813"/>
<path fill-rule="evenodd" clip-rule="evenodd" d="M9.62073 94.4037C9.62073 95.4004 10.428 96.2076 11.4246 96.2076C12.4213 96.2076 13.2285 95.4004 13.2285 94.4037C13.2285 93.4071 12.4213 92.5999 11.4246 92.5999C10.428 92.5999 9.62073 93.4071 9.62073 94.4037Z" fill="#FDB813"/>
<path fill-rule="evenodd" clip-rule="evenodd" d="M-0.000368595 94.4037C-0.000368595 95.4004 0.806875 96.2076 1.80353 96.2076C2.80018 96.2076 3.60742 95.4004 3.60742 94.4037C3.60742 93.4071 2.80018 92.5999 1.80353 92.5999C0.806875 92.5999 -0.000368595 93.4071 -0.000368595 94.4037Z" fill="#FDB813"/>
<path fill-rule="evenodd" clip-rule="evenodd" d="M102.22 104.024C102.22 105.021 103.028 105.828 104.024 105.828C105.021 105.828 105.828 105.021 105.828 104.024C105.828 103.028 105.021 102.22 104.024 102.22C103.028 102.22 102.22 103.028 102.22 104.024Z" fill="#FDB813"/>
<path fill-rule="evenodd" clip-rule="evenodd" d="M92.5992 104.024C92.5992 105.021 93.4065 105.828 94.4031 105.828C95.3998 105.828 96.207 105.021 96.207 104.024C96.207 103.028 95.3998 102.22 94.4031 102.22C93.4065 102.22 92.5992 103.028 92.5992 104.024Z" fill="#FDB813"/>
<path fill-rule="evenodd" clip-rule="evenodd" d="M83.5797 104.024C83.5797 105.021 84.387 105.828 85.3836 105.828C86.3803 105.828 87.1875 105.021 87.1875 104.024C87.1875 103.028 86.3803 102.22 85.3836 102.22C84.387 102.22 83.5797 103.028 83.5797 104.024Z" fill="#FDB813"/>
<path fill-rule="evenodd" clip-rule="evenodd" d="M74.5612 104.024C74.5612 105.021 75.3684 105.828 76.3651 105.828C77.3617 105.828 78.1689 105.021 78.1689 104.024C78.1689 103.028 77.3617 102.22 76.3651 102.22C75.3684 102.22 74.5612 103.028 74.5612 104.024Z" fill="#FDB813"/>
<path fill-rule="evenodd" clip-rule="evenodd" d="M64.9401 104.024C64.9401 105.021 65.7473 105.828 66.744 105.828C67.7406 105.828 68.5479 105.021 68.5479 104.024C68.5479 103.028 67.7406 102.22 66.744 102.22C65.7473 102.22 64.9401 103.028 64.9401 104.024Z" fill="#FDB813"/>
<path fill-rule="evenodd" clip-rule="evenodd" d="M55.9205 104.024C55.9205 105.021 56.7278 105.828 57.7244 105.828C58.7211 105.828 59.5283 105.021 59.5283 104.024C59.5283 103.028 58.7211 102.22 57.7244 102.22C56.7278 102.22 55.9205 103.028 55.9205 104.024Z" fill="#FDB813"/>
<path fill-rule="evenodd" clip-rule="evenodd" d="M46.3004 104.024C46.3004 105.021 47.1077 105.828 48.1043 105.828C49.101 105.828 49.9082 105.021 49.9082 104.024C49.9082 103.028 49.101 102.22 48.1043 102.22C47.1077 102.22 46.3004 103.028 46.3004 104.024Z" fill="#FDB813"/>
<path fill-rule="evenodd" clip-rule="evenodd" d="M37.2789 104.024C37.2789 105.021 38.0862 105.828 39.0828 105.828C40.0795 105.828 40.8867 105.021 40.8867 104.024C40.8867 103.028 40.0795 102.22 39.0828 102.22C38.0862 102.22 37.2789 103.028 37.2789 104.024Z" fill="#FDB813"/>
<path fill-rule="evenodd" clip-rule="evenodd" d="M27.6598 104.024C27.6598 105.021 28.467 105.828 29.4637 105.828C30.4603 105.828 31.2676 105.021 31.2676 104.024C31.2676 103.028 30.4603 102.22 29.4637 102.22C28.467 102.22 27.6598 103.028 27.6598 104.024Z" fill="#FDB813"/>
<path fill-rule="evenodd" clip-rule="evenodd" d="M18.6403 104.024C18.6403 105.021 19.4475 105.828 20.4442 105.828C21.4408 105.828 22.248 105.021 22.248 104.024C22.248 103.028 21.4408 102.22 20.4442 102.22C19.4475 102.22 18.6403 103.028 18.6403 104.024Z" fill="#FDB813"/>
<path fill-rule="evenodd" clip-rule="evenodd" d="M9.62073 104.024C9.62073 105.021 10.428 105.828 11.4246 105.828C12.4213 105.828 13.2285 105.021 13.2285 104.024C13.2285 103.028 12.4213 102.22 11.4246 102.22C10.428 102.22 9.62073 103.028 9.62073 104.024Z" fill="#FDB813"/>
<path fill-rule="evenodd" clip-rule="evenodd" d="M-0.000368595 104.024C-0.000368595 105.021 0.806875 105.828 1.80353 105.828C2.80018 105.828 3.60742 105.021 3.60742 104.024C3.60742 103.028 2.80018 102.22 1.80353 102.22C0.806875 102.22 -0.000368595 103.028 -0.000368595 104.024Z" fill="#FDB813"/>
<path fill-rule="evenodd" clip-rule="evenodd" d="M92.5992 113.045C92.5992 114.042 93.4065 114.849 94.4031 114.849C95.3998 114.849 96.207 114.042 96.207 113.045C96.207 112.048 95.3998 111.241 94.4031 111.241C93.4065 111.241 92.5992 112.048 92.5992 113.045Z" fill="#FDB813"/>
<path fill-rule="evenodd" clip-rule="evenodd" d="M102.3 111.16C102.3 112.157 103.108 112.964 104.104 112.964C105.101 112.964 105.908 112.157 105.908 111.16C105.908 110.163 105.101 109.356 104.104 109.356C103.108 109.356 102.3 110.163 102.3 111.16Z" fill="#FDB813"/>
<path fill-rule="evenodd" clip-rule="evenodd" d="M83.5807 113.045C83.5807 114.042 84.3879 114.849 85.3846 114.849C86.3812 114.849 87.1885 114.042 87.1885 113.045C87.1885 112.048 86.3812 111.241 85.3846 111.241C84.3879 111.241 83.5807 112.048 83.5807 113.045Z" fill="#FDB813"/>
<path fill-rule="evenodd" clip-rule="evenodd" d="M74.5602 113.045C74.5602 114.042 75.3674 114.849 76.3641 114.849C77.3607 114.849 78.168 114.042 78.168 113.045C78.168 112.048 77.3607 111.241 76.3641 111.241C75.3674 111.241 74.5602 112.048 74.5602 113.045Z" fill="#FDB813"/>
<path fill-rule="evenodd" clip-rule="evenodd" d="M64.9401 113.045C64.9401 114.042 65.7473 114.849 66.744 114.849C67.7406 114.849 68.5479 114.042 68.5479 113.045C68.5479 112.048 67.7406 111.241 66.744 111.241C65.7473 111.241 64.9401 112.048 64.9401 113.045Z" fill="#FDB813"/>
<path fill-rule="evenodd" clip-rule="evenodd" d="M55.9205 113.045C55.9205 114.042 56.7278 114.849 57.7244 114.849C58.7211 114.849 59.5283 114.042 59.5283 113.045C59.5283 112.048 58.7211 111.241 57.7244 111.241C56.7278 111.241 55.9205 112.048 55.9205 113.045Z" fill="#FDB813"/>
<path fill-rule="evenodd" clip-rule="evenodd" d="M46.3004 113.045C46.3004 114.042 47.1077 114.849 48.1043 114.849C49.101 114.849 49.9082 114.042 49.9082 113.045C49.9082 112.048 49.101 111.241 48.1043 111.241C47.1077 111.241 46.3004 112.048 46.3004 113.045Z" fill="#FDB813"/>
<path fill-rule="evenodd" clip-rule="evenodd" d="M37.2799 113.045C37.2799 114.042 38.0871 114.849 39.0838 114.849C40.0805 114.849 40.8877 114.042 40.8877 113.045C40.8877 112.048 40.0805 111.241 39.0838 111.241C38.0871 111.241 37.2799 112.048 37.2799 113.045Z" fill="#FDB813"/>
<path fill-rule="evenodd" clip-rule="evenodd" d="M27.6598 113.045C27.6598 114.042 28.467 114.849 29.4637 114.849C30.4603 114.849 31.2676 114.042 31.2676 113.045C31.2676 112.048 30.4603 111.241 29.4637 111.241C28.467 111.241 27.6598 112.048 27.6598 113.045Z" fill="#FDB813"/>
<path fill-rule="evenodd" clip-rule="evenodd" d="M18.6403 113.045C18.6403 114.042 19.4475 114.849 20.4442 114.849C21.4408 114.849 22.248 114.042 22.248 113.045C22.248 112.048 21.4408 111.241 20.4442 111.241C19.4475 111.241 18.6403 112.048 18.6403 113.045Z" fill="#FDB813"/>
<path fill-rule="evenodd" clip-rule="evenodd" d="M9.62073 113.045C9.62073 114.042 10.428 114.849 11.4246 114.849C12.4213 114.849 13.2285 114.042 13.2285 113.045C13.2285 112.048 12.4213 111.241 11.4246 111.241C10.428 111.241 9.62073 112.048 9.62073 113.045Z" fill="#FDB813"/>
<path fill-rule="evenodd" clip-rule="evenodd" d="M-0.000368595 113.045C-0.000368595 114.042 0.806875 114.849 1.80353 114.849C2.80018 114.849 3.60742 114.042 3.60742 113.045C3.60742 112.048 2.80018 111.241 1.80353 111.241C0.806875 111.241 -0.000368595 112.048 -0.000368595 113.045Z" fill="#FDB813"/>
<path fill-rule="evenodd" clip-rule="evenodd" d="M92.5992 1.8039C92.5992 2.80055 93.4065 3.60779 94.4031 3.60779C95.3998 3.60779 96.207 2.80055 96.207 1.8039C96.207 0.807243 95.3998 0 94.4031 0C93.4065 0 92.5992 0.807243 92.5992 1.8039Z" fill="#FDB813"/>
<path fill-rule="evenodd" clip-rule="evenodd" d="M102.3 1.8039C102.3 2.80055 103.108 3.60779 104.104 3.60779C105.101 3.60779 105.908 2.80055 105.908 1.8039C105.908 0.807243 105.101 0 104.104 0C103.108 0 102.3 0.807243 102.3 1.8039Z" fill="#FDB813"/>
<path fill-rule="evenodd" clip-rule="evenodd" d="M83.5797 1.8039C83.5797 2.80055 84.387 3.60779 85.3836 3.60779C86.3803 3.60779 87.1875 2.80055 87.1875 1.8039C87.1875 0.807243 86.3803 0 85.3836 0C84.387 0 83.5797 0.807243 83.5797 1.8039Z" fill="#FDB813"/>
<path fill-rule="evenodd" clip-rule="evenodd" d="M74.5612 1.8039C74.5612 2.80055 75.3684 3.60779 76.3651 3.60779C77.3617 3.60779 78.1689 2.80055 78.1689 1.8039C78.1689 0.807243 77.3617 0 76.3651 0C75.3684 0 74.5612 0.807243 74.5612 1.8039Z" fill="#FDB813"/>
<path fill-rule="evenodd" clip-rule="evenodd" d="M64.9401 1.8039C64.9401 2.80055 65.7473 3.60779 66.744 3.60779C67.7406 3.60779 68.5479 2.80055 68.5479 1.8039C68.5479 0.807243 67.7406 0 66.744 0C65.7473 0 64.9401 0.807243 64.9401 1.8039Z" fill="#FDB813"/>
<path fill-rule="evenodd" clip-rule="evenodd" d="M55.9205 1.8039C55.9205 2.80055 56.7278 3.60779 57.7244 3.60779C58.7211 3.60779 59.5283 2.80055 59.5283 1.8039C59.5283 0.807243 58.7211 0 57.7244 0C56.7278 0 55.9205 0.807243 55.9205 1.8039Z" fill="#FDB813"/>
<path fill-rule="evenodd" clip-rule="evenodd" d="M46.3004 1.8039C46.3004 2.80055 47.1077 3.60779 48.1043 3.60779C49.101 3.60779 49.9082 2.80055 49.9082 1.8039C49.9082 0.807243 49.101 0 48.1043 0C47.1077 0 46.3004 0.807243 46.3004 1.8039Z" fill="#FDB813"/>
<path fill-rule="evenodd" clip-rule="evenodd" d="M37.2789 1.8039C37.2789 2.80055 38.0862 3.60779 39.0828 3.60779C40.0795 3.60779 40.8867 2.80055 40.8867 1.8039C40.8867 0.807243 40.0795 0 39.0828 0C38.0862 0 37.2789 0.807243 37.2789 1.8039Z" fill="#FDB813"/>
<path fill-rule="evenodd" clip-rule="evenodd" d="M27.6598 1.8039C27.6598 2.80055 28.467 3.60779 29.4637 3.60779C30.4603 3.60779 31.2676 2.80055 31.2676 1.8039C31.2676 0.807243 30.4603 0 29.4637 0C28.467 0 27.6598 0.807243 27.6598 1.8039Z" fill="#FDB813"/>
<path fill-rule="evenodd" clip-rule="evenodd" d="M18.6403 1.8039C18.6403 2.80055 19.4475 3.60779 20.4442 3.60779C21.4408 3.60779 22.248 2.80055 22.248 1.8039C22.248 0.807243 21.4408 0 20.4442 0C19.4475 0 18.6403 0.807243 18.6403 1.8039Z" fill="#FDB813"/>
<path fill-rule="evenodd" clip-rule="evenodd" d="M9.62073 1.8039C9.62073 2.80055 10.428 3.60779 11.4246 3.60779C12.4213 3.60779 13.2285 2.80055 13.2285 1.8039C13.2285 0.807243 12.4213 0 11.4246 0C10.428 0 9.62073 0.807243 9.62073 1.8039Z" fill="#FDB813"/>
<path fill-rule="evenodd" clip-rule="evenodd" d="M-0.000368595 1.8039C-0.000368595 2.80055 0.806875 3.60779 1.80353 3.60779C2.80018 3.60779 3.60742 2.80055 3.60742 1.8039C3.60742 0.807243 2.80018 0 1.80353 0C0.806875 0 -0.000368595 0.807243 -0.000368595 1.8039Z" fill="#FDB813"/>
</svg>
