<svg width="154" height="167" viewBox="0 0 154 167" fill="none" xmlns="http://www.w3.org/2000/svg">
<path fill-rule="evenodd" clip-rule="evenodd" d="M5.24603 15.7392C5.24603 17.1884 4.07223 18.3622 2.62301 18.3622C1.1738 18.3622 0 17.1884 0 15.7392C0 14.29 1.1738 13.1162 2.62301 13.1162C4.07223 13.1162 5.24603 14.29 5.24603 15.7392Z" fill="#FDB813"/>
<path fill-rule="evenodd" clip-rule="evenodd" d="M19.2363 15.7392C19.2363 17.1884 18.0625 18.3622 16.6132 18.3622C15.164 18.3622 13.9902 17.1884 13.9902 15.7392C13.9902 14.29 15.164 13.1162 16.6132 13.1162C18.0625 13.1162 19.2363 14.29 19.2363 15.7392Z" fill="#FDB813"/>
<path fill-rule="evenodd" clip-rule="evenodd" d="M32.3495 15.7392C32.3495 17.1884 31.1757 18.3622 29.7265 18.3622C28.2773 18.3622 27.1035 17.1884 27.1035 15.7392C27.1035 14.29 28.2773 13.1162 29.7265 13.1162C31.1757 13.1162 32.3495 14.29 32.3495 15.7392Z" fill="#FDB813"/>
<path fill-rule="evenodd" clip-rule="evenodd" d="M45.4667 15.7392C45.4667 17.1884 44.2929 18.3622 42.8437 18.3622C41.3945 18.3622 40.2207 17.1884 40.2207 15.7392C40.2207 14.29 41.3945 13.1162 42.8437 13.1162C44.2929 13.1162 45.4667 14.29 45.4667 15.7392Z" fill="#FDB813"/>
<path fill-rule="evenodd" clip-rule="evenodd" d="M59.455 15.7392C59.455 17.1884 58.2812 18.3622 56.832 18.3622C55.3828 18.3622 54.209 17.1884 54.209 15.7392C54.209 14.29 55.3828 13.1162 56.832 13.1162C58.2812 13.1162 59.455 14.29 59.455 15.7392Z" fill="#FDB813"/>
<path fill-rule="evenodd" clip-rule="evenodd" d="M72.5702 15.7392C72.5702 17.1884 71.3964 18.3622 69.9472 18.3622C68.498 18.3622 67.3242 17.1884 67.3242 15.7392C67.3242 14.29 68.498 13.1162 69.9472 13.1162C71.3964 13.1162 72.5702 14.29 72.5702 15.7392Z" fill="#FDB813"/>
<path fill-rule="evenodd" clip-rule="evenodd" d="M86.5595 15.7392C86.5595 17.1884 85.3857 18.3622 83.9365 18.3622C82.4873 18.3622 81.3135 17.1884 81.3135 15.7392C81.3135 14.29 82.4873 13.1162 83.9365 13.1162C85.3857 13.1162 86.5595 14.29 86.5595 15.7392Z" fill="#FDB813"/>
<path fill-rule="evenodd" clip-rule="evenodd" d="M99.6738 15.7392C99.6738 17.1884 98.5 18.3622 97.0507 18.3622C95.6015 18.3622 94.4277 17.1884 94.4277 15.7392C94.4277 14.29 95.6015 13.1162 97.0507 13.1162C98.5 13.1162 99.6738 14.29 99.6738 15.7392Z" fill="#FDB813"/>
<path fill-rule="evenodd" clip-rule="evenodd" d="M113.664 15.7392C113.664 17.1884 112.49 18.3622 111.041 18.3622C109.592 18.3622 108.418 17.1884 108.418 15.7392C108.418 14.29 109.592 13.1162 111.041 13.1162C112.49 13.1162 113.664 14.29 113.664 15.7392Z" fill="#FDB813"/>
<path fill-rule="evenodd" clip-rule="evenodd" d="M126.778 15.7392C126.778 17.1884 125.604 18.3622 124.155 18.3622C122.706 18.3622 121.532 17.1884 121.532 15.7392C121.532 14.29 122.706 13.1162 124.155 13.1162C125.604 13.1162 126.778 14.29 126.778 15.7392Z" fill="#FDB813"/>
<path fill-rule="evenodd" clip-rule="evenodd" d="M139.894 15.7392C139.894 17.1884 138.721 18.3622 137.271 18.3622C135.822 18.3622 134.648 17.1884 134.648 15.7392C134.648 14.29 135.822 13.1162 137.271 13.1162C138.721 13.1162 139.894 14.29 139.894 15.7392Z" fill="#FDB813"/>
<path fill-rule="evenodd" clip-rule="evenodd" d="M153.884 15.7392C153.884 17.1884 152.71 18.3622 151.261 18.3622C149.811 18.3622 148.638 17.1884 148.638 15.7392C148.638 14.29 149.811 13.1162 151.261 13.1162C152.71 13.1162 153.884 14.29 153.884 15.7392Z" fill="#FDB813"/>
<path fill-rule="evenodd" clip-rule="evenodd" d="M5.24603 29.729C5.24603 31.1782 4.07223 32.352 2.62301 32.352C1.1738 32.352 0 31.1782 0 29.729C0 28.2798 1.1738 27.106 2.62301 27.106C4.07223 27.106 5.24603 28.2798 5.24603 29.729Z" fill="#FDB813"/>
<path fill-rule="evenodd" clip-rule="evenodd" d="M19.2363 29.729C19.2363 31.1782 18.0625 32.352 16.6132 32.352C15.164 32.352 13.9902 31.1782 13.9902 29.729C13.9902 28.2798 15.164 27.106 16.6132 27.106C18.0625 27.106 19.2363 28.2798 19.2363 29.729Z" fill="#FDB813"/>
<path fill-rule="evenodd" clip-rule="evenodd" d="M32.3495 29.729C32.3495 31.1782 31.1757 32.352 29.7265 32.352C28.2773 32.352 27.1035 31.1782 27.1035 29.729C27.1035 28.2798 28.2773 27.106 29.7265 27.106C31.1757 27.106 32.3495 28.2798 32.3495 29.729Z" fill="#FDB813"/>
<path fill-rule="evenodd" clip-rule="evenodd" d="M45.4667 29.729C45.4667 31.1782 44.2929 32.352 42.8437 32.352C41.3945 32.352 40.2207 31.1782 40.2207 29.729C40.2207 28.2798 41.3945 27.106 42.8437 27.106C44.2929 27.106 45.4667 28.2798 45.4667 29.729Z" fill="#FDB813"/>
<path fill-rule="evenodd" clip-rule="evenodd" d="M59.455 29.729C59.455 31.1782 58.2812 32.352 56.832 32.352C55.3828 32.352 54.209 31.1782 54.209 29.729C54.209 28.2798 55.3828 27.106 56.832 27.106C58.2812 27.106 59.455 28.2798 59.455 29.729Z" fill="#FDB813"/>
<path fill-rule="evenodd" clip-rule="evenodd" d="M72.5702 29.729C72.5702 31.1782 71.3964 32.352 69.9472 32.352C68.498 32.352 67.3242 31.1782 67.3242 29.729C67.3242 28.2798 68.498 27.106 69.9472 27.106C71.3964 27.106 72.5702 28.2798 72.5702 29.729Z" fill="#FDB813"/>
<path fill-rule="evenodd" clip-rule="evenodd" d="M86.5595 29.729C86.5595 31.1782 85.3857 32.352 83.9365 32.352C82.4873 32.352 81.3135 31.1782 81.3135 29.729C81.3135 28.2798 82.4873 27.106 83.9365 27.106C85.3857 27.106 86.5595 28.2798 86.5595 29.729Z" fill="#FDB813"/>
<path fill-rule="evenodd" clip-rule="evenodd" d="M99.6738 29.729C99.6738 31.1782 98.5 32.352 97.0507 32.352C95.6015 32.352 94.4277 31.1782 94.4277 29.729C94.4277 28.2798 95.6015 27.106 97.0507 27.106C98.5 27.106 99.6738 28.2798 99.6738 29.729Z" fill="#FDB813"/>
<path fill-rule="evenodd" clip-rule="evenodd" d="M113.664 29.729C113.664 31.1782 112.49 32.352 111.041 32.352C109.592 32.352 108.418 31.1782 108.418 29.729C108.418 28.2798 109.592 27.106 111.041 27.106C112.49 27.106 113.664 28.2798 113.664 29.729Z" fill="#FDB813"/>
<path fill-rule="evenodd" clip-rule="evenodd" d="M126.778 29.729C126.778 31.1782 125.604 32.352 124.155 32.352C122.706 32.352 121.532 31.1782 121.532 29.729C121.532 28.2798 122.706 27.106 124.155 27.106C125.604 27.106 126.778 28.2798 126.778 29.729Z" fill="#FDB813"/>
<path fill-rule="evenodd" clip-rule="evenodd" d="M139.894 29.729C139.894 31.1782 138.721 32.352 137.271 32.352C135.822 32.352 134.648 31.1782 134.648 29.729C134.648 28.2798 135.822 27.106 137.271 27.106C138.721 27.106 139.894 28.2798 139.894 29.729Z" fill="#FDB813"/>
<path fill-rule="evenodd" clip-rule="evenodd" d="M153.884 29.729C153.884 31.1782 152.71 32.352 151.261 32.352C149.811 32.352 148.638 31.1782 148.638 29.729C148.638 28.2798 149.811 27.106 151.261 27.106C152.71 27.106 153.884 28.2798 153.884 29.729Z" fill="#FDB813"/>
<path fill-rule="evenodd" clip-rule="evenodd" d="M5.24603 42.8413C5.24603 44.2905 4.07223 45.4643 2.62301 45.4643C1.1738 45.4643 0 44.2905 0 42.8413C0 41.3921 1.1738 40.2183 2.62301 40.2183C4.07223 40.2183 5.24603 41.3921 5.24603 42.8413Z" fill="#FDB813"/>
<path fill-rule="evenodd" clip-rule="evenodd" d="M19.2363 42.8413C19.2363 44.2905 18.0625 45.4643 16.6132 45.4643C15.164 45.4643 13.9902 44.2905 13.9902 42.8413C13.9902 41.3921 15.164 40.2183 16.6132 40.2183C18.0625 40.2183 19.2363 41.3921 19.2363 42.8413Z" fill="#FDB813"/>
<path fill-rule="evenodd" clip-rule="evenodd" d="M32.3495 42.8413C32.3495 44.2905 31.1757 45.4643 29.7265 45.4643C28.2773 45.4643 27.1035 44.2905 27.1035 42.8413C27.1035 41.3921 28.2773 40.2183 29.7265 40.2183C31.1757 40.2183 32.3495 41.3921 32.3495 42.8413Z" fill="#FDB813"/>
<path fill-rule="evenodd" clip-rule="evenodd" d="M45.4667 42.8413C45.4667 44.2905 44.2929 45.4643 42.8437 45.4643C41.3945 45.4643 40.2207 44.2905 40.2207 42.8413C40.2207 41.3921 41.3945 40.2183 42.8437 40.2183C44.2929 40.2183 45.4667 41.3921 45.4667 42.8413Z" fill="#FDB813"/>
<path fill-rule="evenodd" clip-rule="evenodd" d="M59.455 42.8413C59.455 44.2905 58.2812 45.4643 56.832 45.4643C55.3828 45.4643 54.209 44.2905 54.209 42.8413C54.209 41.3921 55.3828 40.2183 56.832 40.2183C58.2812 40.2183 59.455 41.3921 59.455 42.8413Z" fill="#FDB813"/>
<path fill-rule="evenodd" clip-rule="evenodd" d="M72.5702 42.8413C72.5702 44.2905 71.3964 45.4643 69.9472 45.4643C68.498 45.4643 67.3242 44.2905 67.3242 42.8413C67.3242 41.3921 68.498 40.2183 69.9472 40.2183C71.3964 40.2183 72.5702 41.3921 72.5702 42.8413Z" fill="#FDB813"/>
<path fill-rule="evenodd" clip-rule="evenodd" d="M86.5595 42.8413C86.5595 44.2905 85.3857 45.4643 83.9365 45.4643C82.4873 45.4643 81.3135 44.2905 81.3135 42.8413C81.3135 41.3921 82.4873 40.2183 83.9365 40.2183C85.3857 40.2183 86.5595 41.3921 86.5595 42.8413Z" fill="#FDB813"/>
<path fill-rule="evenodd" clip-rule="evenodd" d="M99.6738 42.8413C99.6738 44.2905 98.5 45.4643 97.0507 45.4643C95.6015 45.4643 94.4277 44.2905 94.4277 42.8413C94.4277 41.3921 95.6015 40.2183 97.0507 40.2183C98.5 40.2183 99.6738 41.3921 99.6738 42.8413Z" fill="#FDB813"/>
<path fill-rule="evenodd" clip-rule="evenodd" d="M113.664 42.8413C113.664 44.2905 112.49 45.4643 111.041 45.4643C109.592 45.4643 108.418 44.2905 108.418 42.8413C108.418 41.3921 109.592 40.2183 111.041 40.2183C112.49 40.2183 113.664 41.3921 113.664 42.8413Z" fill="#FDB813"/>
<path fill-rule="evenodd" clip-rule="evenodd" d="M126.778 42.8413C126.778 44.2905 125.604 45.4643 124.155 45.4643C122.706 45.4643 121.532 44.2905 121.532 42.8413C121.532 41.3921 122.706 40.2183 124.155 40.2183C125.604 40.2183 126.778 41.3921 126.778 42.8413Z" fill="#FDB813"/>
<path fill-rule="evenodd" clip-rule="evenodd" d="M139.894 42.8413C139.894 44.2905 138.721 45.4643 137.271 45.4643C135.822 45.4643 134.648 44.2905 134.648 42.8413C134.648 41.3921 135.822 40.2183 137.271 40.2183C138.721 40.2183 139.894 41.3921 139.894 42.8413Z" fill="#FDB813"/>
<path fill-rule="evenodd" clip-rule="evenodd" d="M153.884 42.8413C153.884 44.2905 152.71 45.4643 151.261 45.4643C149.811 45.4643 148.638 44.2905 148.638 42.8413C148.638 41.3921 149.811 40.2183 151.261 40.2183C152.71 40.2183 153.884 41.3921 153.884 42.8413Z" fill="#FDB813"/>
<path fill-rule="evenodd" clip-rule="evenodd" d="M5.24603 56.831C5.24603 58.2802 4.07223 59.454 2.62301 59.454C1.1738 59.454 0 58.2802 0 56.831C0 55.3818 1.1738 54.208 2.62301 54.208C4.07223 54.208 5.24603 55.3818 5.24603 56.831Z" fill="#FDB813"/>
<path fill-rule="evenodd" clip-rule="evenodd" d="M19.2363 56.831C19.2363 58.2802 18.0625 59.454 16.6132 59.454C15.164 59.454 13.9902 58.2802 13.9902 56.831C13.9902 55.3818 15.164 54.208 16.6132 54.208C18.0625 54.208 19.2363 55.3818 19.2363 56.831Z" fill="#FDB813"/>
<path fill-rule="evenodd" clip-rule="evenodd" d="M32.3495 56.831C32.3495 58.2802 31.1757 59.454 29.7265 59.454C28.2773 59.454 27.1035 58.2802 27.1035 56.831C27.1035 55.3818 28.2773 54.208 29.7265 54.208C31.1757 54.208 32.3495 55.3818 32.3495 56.831Z" fill="#FDB813"/>
<path fill-rule="evenodd" clip-rule="evenodd" d="M45.4667 56.831C45.4667 58.2802 44.2929 59.454 42.8437 59.454C41.3945 59.454 40.2207 58.2802 40.2207 56.831C40.2207 55.3818 41.3945 54.208 42.8437 54.208C44.2929 54.208 45.4667 55.3818 45.4667 56.831Z" fill="#FDB813"/>
<path fill-rule="evenodd" clip-rule="evenodd" d="M59.455 56.831C59.455 58.2802 58.2812 59.454 56.832 59.454C55.3828 59.454 54.209 58.2802 54.209 56.831C54.209 55.3818 55.3828 54.208 56.832 54.208C58.2812 54.208 59.455 55.3818 59.455 56.831Z" fill="#FDB813"/>
<path fill-rule="evenodd" clip-rule="evenodd" d="M72.5702 56.831C72.5702 58.2802 71.3964 59.454 69.9472 59.454C68.498 59.454 67.3242 58.2802 67.3242 56.831C67.3242 55.3818 68.498 54.208 69.9472 54.208C71.3964 54.208 72.5702 55.3818 72.5702 56.831Z" fill="#FDB813"/>
<path fill-rule="evenodd" clip-rule="evenodd" d="M86.5595 56.831C86.5595 58.2802 85.3857 59.454 83.9365 59.454C82.4873 59.454 81.3135 58.2802 81.3135 56.831C81.3135 55.3818 82.4873 54.208 83.9365 54.208C85.3857 54.208 86.5595 55.3818 86.5595 56.831Z" fill="#FDB813"/>
<path fill-rule="evenodd" clip-rule="evenodd" d="M99.6738 56.831C99.6738 58.2802 98.5 59.454 97.0507 59.454C95.6015 59.454 94.4277 58.2802 94.4277 56.831C94.4277 55.3818 95.6015 54.208 97.0507 54.208C98.5 54.208 99.6738 55.3818 99.6738 56.831Z" fill="#FDB813"/>
<path fill-rule="evenodd" clip-rule="evenodd" d="M113.664 56.831C113.664 58.2802 112.49 59.454 111.041 59.454C109.592 59.454 108.418 58.2802 108.418 56.831C108.418 55.3818 109.592 54.208 111.041 54.208C112.49 54.208 113.664 55.3818 113.664 56.831Z" fill="#FDB813"/>
<path fill-rule="evenodd" clip-rule="evenodd" d="M126.778 56.831C126.778 58.2802 125.604 59.454 124.155 59.454C122.706 59.454 121.532 58.2802 121.532 56.831C121.532 55.3818 122.706 54.208 124.155 54.208C125.604 54.208 126.778 55.3818 126.778 56.831Z" fill="#FDB813"/>
<path fill-rule="evenodd" clip-rule="evenodd" d="M139.894 56.831C139.894 58.2802 138.721 59.454 137.271 59.454C135.822 59.454 134.648 58.2802 134.648 56.831C134.648 55.3818 135.822 54.208 137.271 54.208C138.721 54.208 139.894 55.3818 139.894 56.831Z" fill="#FDB813"/>
<path fill-rule="evenodd" clip-rule="evenodd" d="M153.884 56.831C153.884 58.2802 152.71 59.454 151.261 59.454C149.811 59.454 148.638 58.2802 148.638 56.831C148.638 55.3818 149.811 54.208 151.261 54.208C152.71 54.208 153.884 55.3818 153.884 56.831Z" fill="#FDB813"/>
<path fill-rule="evenodd" clip-rule="evenodd" d="M5.24603 69.947C5.24603 71.3962 4.07223 72.57 2.62301 72.57C1.1738 72.57 0 71.3962 0 69.947C0 68.4978 1.1738 67.324 2.62301 67.324C4.07223 67.324 5.24603 68.4978 5.24603 69.947Z" fill="#FDB813"/>
<path fill-rule="evenodd" clip-rule="evenodd" d="M19.2363 69.947C19.2363 71.3962 18.0625 72.57 16.6132 72.57C15.164 72.57 13.9902 71.3962 13.9902 69.947C13.9902 68.4978 15.164 67.324 16.6132 67.324C18.0625 67.324 19.2363 68.4978 19.2363 69.947Z" fill="#FDB813"/>
<path fill-rule="evenodd" clip-rule="evenodd" d="M32.3505 69.947C32.3505 71.3962 31.1767 72.57 29.7275 72.57C28.2783 72.57 27.1045 71.3962 27.1045 69.947C27.1045 68.4978 28.2783 67.324 29.7275 67.324C31.1767 67.324 32.3505 68.4978 32.3505 69.947Z" fill="#FDB813"/>
<path fill-rule="evenodd" clip-rule="evenodd" d="M45.4658 69.947C45.4658 71.3962 44.292 72.57 42.8427 72.57C41.3935 72.57 40.2197 71.3962 40.2197 69.947C40.2197 68.4978 41.3935 67.324 42.8427 67.324C44.292 67.324 45.4658 68.4978 45.4658 69.947Z" fill="#FDB813"/>
<path fill-rule="evenodd" clip-rule="evenodd" d="M59.455 69.947C59.455 71.3962 58.2812 72.57 56.832 72.57C55.3828 72.57 54.209 71.3962 54.209 69.947C54.209 68.4978 55.3828 67.324 56.832 67.324C58.2812 67.324 59.455 68.4978 59.455 69.947Z" fill="#FDB813"/>
<path fill-rule="evenodd" clip-rule="evenodd" d="M72.5702 69.947C72.5702 71.3962 71.3964 72.57 69.9472 72.57C68.498 72.57 67.3242 71.3962 67.3242 69.947C67.3242 68.4978 68.498 67.324 69.9472 67.324C71.3964 67.324 72.5702 68.4978 72.5702 69.947Z" fill="#FDB813"/>
<path fill-rule="evenodd" clip-rule="evenodd" d="M86.5595 69.947C86.5595 71.3962 85.3857 72.57 83.9365 72.57C82.4873 72.57 81.3135 71.3962 81.3135 69.947C81.3135 68.4978 82.4873 67.324 83.9365 67.324C85.3857 67.324 86.5595 68.4978 86.5595 69.947Z" fill="#FDB813"/>
<path fill-rule="evenodd" clip-rule="evenodd" d="M99.6747 69.947C99.6747 71.3962 98.5009 72.57 97.0517 72.57C95.6025 72.57 94.4287 71.3962 94.4287 69.947C94.4287 68.4978 95.6025 67.324 97.0517 67.324C98.5009 67.324 99.6747 68.4978 99.6747 69.947Z" fill="#FDB813"/>
<path fill-rule="evenodd" clip-rule="evenodd" d="M113.664 69.947C113.664 71.3962 112.49 72.57 111.041 72.57C109.592 72.57 108.418 71.3962 108.418 69.947C108.418 68.4978 109.592 67.324 111.041 67.324C112.49 67.324 113.664 68.4978 113.664 69.947Z" fill="#FDB813"/>
<path fill-rule="evenodd" clip-rule="evenodd" d="M126.778 69.947C126.778 71.3962 125.604 72.57 124.155 72.57C122.706 72.57 121.532 71.3962 121.532 69.947C121.532 68.4978 122.706 67.324 124.155 67.324C125.604 67.324 126.778 68.4978 126.778 69.947Z" fill="#FDB813"/>
<path fill-rule="evenodd" clip-rule="evenodd" d="M139.894 69.947C139.894 71.3962 138.721 72.57 137.271 72.57C135.822 72.57 134.648 71.3962 134.648 69.947C134.648 68.4978 135.822 67.324 137.271 67.324C138.721 67.324 139.894 68.4978 139.894 69.947Z" fill="#FDB813"/>
<path fill-rule="evenodd" clip-rule="evenodd" d="M153.884 69.947C153.884 71.3962 152.71 72.57 151.261 72.57C149.811 72.57 148.638 71.3962 148.638 69.947C148.638 68.4978 149.811 67.324 151.261 67.324C152.71 67.324 153.884 68.4978 153.884 69.947Z" fill="#FDB813"/>
<path fill-rule="evenodd" clip-rule="evenodd" d="M5.24603 83.9365C5.24603 85.3857 4.07223 86.5595 2.62301 86.5595C1.1738 86.5595 0 85.3857 0 83.9365C0 82.4873 1.1738 81.3135 2.62301 81.3135C4.07223 81.3135 5.24603 82.4873 5.24603 83.9365Z" fill="#FDB813"/>
<path fill-rule="evenodd" clip-rule="evenodd" d="M19.2363 83.9365C19.2363 85.3857 18.0625 86.5595 16.6132 86.5595C15.164 86.5595 13.9902 85.3857 13.9902 83.9365C13.9902 82.4873 15.164 81.3135 16.6132 81.3135C18.0625 81.3135 19.2363 82.4873 19.2363 83.9365Z" fill="#FDB813"/>
<path fill-rule="evenodd" clip-rule="evenodd" d="M32.3505 83.9365C32.3505 85.3857 31.1767 86.5595 29.7275 86.5595C28.2783 86.5595 27.1045 85.3857 27.1045 83.9365C27.1045 82.4873 28.2783 81.3135 29.7275 81.3135C31.1767 81.3135 32.3505 82.4873 32.3505 83.9365Z" fill="#FDB813"/>
<path fill-rule="evenodd" clip-rule="evenodd" d="M45.4658 83.9365C45.4658 85.3857 44.292 86.5595 42.8427 86.5595C41.3935 86.5595 40.2197 85.3857 40.2197 83.9365C40.2197 82.4873 41.3935 81.3135 42.8427 81.3135C44.292 81.3135 45.4658 82.4873 45.4658 83.9365Z" fill="#FDB813"/>
<path fill-rule="evenodd" clip-rule="evenodd" d="M59.455 83.9365C59.455 85.3857 58.2812 86.5595 56.832 86.5595C55.3828 86.5595 54.209 85.3857 54.209 83.9365C54.209 82.4873 55.3828 81.3135 56.832 81.3135C58.2812 81.3135 59.455 82.4873 59.455 83.9365Z" fill="#FDB813"/>
<path fill-rule="evenodd" clip-rule="evenodd" d="M72.5702 83.9365C72.5702 85.3857 71.3964 86.5595 69.9472 86.5595C68.498 86.5595 67.3242 85.3857 67.3242 83.9365C67.3242 82.4873 68.498 81.3135 69.9472 81.3135C71.3964 81.3135 72.5702 82.4873 72.5702 83.9365Z" fill="#FDB813"/>
<path fill-rule="evenodd" clip-rule="evenodd" d="M86.5595 83.9365C86.5595 85.3857 85.3857 86.5595 83.9365 86.5595C82.4873 86.5595 81.3135 85.3857 81.3135 83.9365C81.3135 82.4873 82.4873 81.3135 83.9365 81.3135C85.3857 81.3135 86.5595 82.4873 86.5595 83.9365Z" fill="#FDB813"/>
<path fill-rule="evenodd" clip-rule="evenodd" d="M99.6747 83.9365C99.6747 85.3857 98.5009 86.5595 97.0517 86.5595C95.6025 86.5595 94.4287 85.3857 94.4287 83.9365C94.4287 82.4873 95.6025 81.3135 97.0517 81.3135C98.5009 81.3135 99.6747 82.4873 99.6747 83.9365Z" fill="#FDB813"/>
<path fill-rule="evenodd" clip-rule="evenodd" d="M113.664 83.9365C113.664 85.3857 112.49 86.5595 111.041 86.5595C109.592 86.5595 108.418 85.3857 108.418 83.9365C108.418 82.4873 109.592 81.3135 111.041 81.3135C112.49 81.3135 113.664 82.4873 113.664 83.9365Z" fill="#FDB813"/>
<path fill-rule="evenodd" clip-rule="evenodd" d="M126.778 83.9365C126.778 85.3857 125.604 86.5595 124.155 86.5595C122.706 86.5595 121.532 85.3857 121.532 83.9365C121.532 82.4873 122.706 81.3135 124.155 81.3135C125.604 81.3135 126.778 82.4873 126.778 83.9365Z" fill="#FDB813"/>
<path fill-rule="evenodd" clip-rule="evenodd" d="M139.894 83.9365C139.894 85.3857 138.721 86.5595 137.271 86.5595C135.822 86.5595 134.648 85.3857 134.648 83.9365C134.648 82.4873 135.822 81.3135 137.271 81.3135C138.721 81.3135 139.894 82.4873 139.894 83.9365Z" fill="#FDB813"/>
<path fill-rule="evenodd" clip-rule="evenodd" d="M153.884 83.9365C153.884 85.3857 152.71 86.5595 151.261 86.5595C149.811 86.5595 148.638 85.3857 148.638 83.9365C148.638 82.4873 149.811 81.3135 151.261 81.3135C152.71 81.3135 153.884 82.4873 153.884 83.9365Z" fill="#FDB813"/>
<path fill-rule="evenodd" clip-rule="evenodd" d="M5.24603 97.0529C5.24603 98.5022 4.07223 99.676 2.62301 99.676C1.1738 99.676 0 98.5022 0 97.0529C0 95.6037 1.1738 94.4299 2.62301 94.4299C4.07223 94.4299 5.24603 95.6037 5.24603 97.0529Z" fill="#FDB813"/>
<path fill-rule="evenodd" clip-rule="evenodd" d="M19.2363 97.0529C19.2363 98.5022 18.0625 99.676 16.6132 99.676C15.164 99.676 13.9902 98.5022 13.9902 97.0529C13.9902 95.6037 15.164 94.4299 16.6132 94.4299C18.0625 94.4299 19.2363 95.6037 19.2363 97.0529Z" fill="#FDB813"/>
<path fill-rule="evenodd" clip-rule="evenodd" d="M32.3495 97.0529C32.3495 98.5022 31.1757 99.676 29.7265 99.676C28.2773 99.676 27.1035 98.5022 27.1035 97.0529C27.1035 95.6037 28.2773 94.4299 29.7265 94.4299C31.1757 94.4299 32.3495 95.6037 32.3495 97.0529Z" fill="#FDB813"/>
<path fill-rule="evenodd" clip-rule="evenodd" d="M45.4667 97.0529C45.4667 98.5022 44.2929 99.676 42.8437 99.676C41.3945 99.676 40.2207 98.5022 40.2207 97.0529C40.2207 95.6037 41.3945 94.4299 42.8437 94.4299C44.2929 94.4299 45.4667 95.6037 45.4667 97.0529Z" fill="#FDB813"/>
<path fill-rule="evenodd" clip-rule="evenodd" d="M59.455 97.0529C59.455 98.5022 58.2812 99.676 56.832 99.676C55.3828 99.676 54.209 98.5022 54.209 97.0529C54.209 95.6037 55.3828 94.4299 56.832 94.4299C58.2812 94.4299 59.455 95.6037 59.455 97.0529Z" fill="#FDB813"/>
<path fill-rule="evenodd" clip-rule="evenodd" d="M72.5702 97.0529C72.5702 98.5022 71.3964 99.676 69.9472 99.676C68.498 99.676 67.3242 98.5022 67.3242 97.0529C67.3242 95.6037 68.498 94.4299 69.9472 94.4299C71.3964 94.4299 72.5702 95.6037 72.5702 97.0529Z" fill="#FDB813"/>
<path fill-rule="evenodd" clip-rule="evenodd" d="M86.5595 97.0529C86.5595 98.5022 85.3857 99.676 83.9365 99.676C82.4873 99.676 81.3135 98.5022 81.3135 97.0529C81.3135 95.6037 82.4873 94.4299 83.9365 94.4299C85.3857 94.4299 86.5595 95.6037 86.5595 97.0529Z" fill="#FDB813"/>
<path fill-rule="evenodd" clip-rule="evenodd" d="M99.6738 97.0529C99.6738 98.5022 98.5 99.676 97.0507 99.676C95.6015 99.676 94.4277 98.5022 94.4277 97.0529C94.4277 95.6037 95.6015 94.4299 97.0507 94.4299C98.5 94.4299 99.6738 95.6037 99.6738 97.0529Z" fill="#FDB813"/>
<path fill-rule="evenodd" clip-rule="evenodd" d="M113.664 97.0529C113.664 98.5022 112.49 99.676 111.041 99.676C109.592 99.676 108.418 98.5022 108.418 97.0529C108.418 95.6037 109.592 94.4299 111.041 94.4299C112.49 94.4299 113.664 95.6037 113.664 97.0529Z" fill="#FDB813"/>
<path fill-rule="evenodd" clip-rule="evenodd" d="M126.778 97.0529C126.778 98.5022 125.604 99.676 124.155 99.676C122.706 99.676 121.532 98.5022 121.532 97.0529C121.532 95.6037 122.706 94.4299 124.155 94.4299C125.604 94.4299 126.778 95.6037 126.778 97.0529Z" fill="#FDB813"/>
<path fill-rule="evenodd" clip-rule="evenodd" d="M139.894 97.0529C139.894 98.5022 138.721 99.676 137.271 99.676C135.822 99.676 134.648 98.5022 134.648 97.0529C134.648 95.6037 135.822 94.4299 137.271 94.4299C138.721 94.4299 139.894 95.6037 139.894 97.0529Z" fill="#FDB813"/>
<path fill-rule="evenodd" clip-rule="evenodd" d="M153.884 97.0529C153.884 98.5022 152.71 99.676 151.261 99.676C149.811 99.676 148.638 98.5022 148.638 97.0529C148.638 95.6037 149.811 94.4299 151.261 94.4299C152.71 94.4299 153.884 95.6037 153.884 97.0529Z" fill="#FDB813"/>
<path fill-rule="evenodd" clip-rule="evenodd" d="M5.24603 110.165C5.24603 111.614 4.07223 112.788 2.62301 112.788C1.1738 112.788 0 111.614 0 110.165C0 108.716 1.1738 107.542 2.62301 107.542C4.07223 107.542 5.24603 108.716 5.24603 110.165Z" fill="#FDB813"/>
<path fill-rule="evenodd" clip-rule="evenodd" d="M19.2363 110.165C19.2363 111.614 18.0625 112.788 16.6132 112.788C15.164 112.788 13.9902 111.614 13.9902 110.165C13.9902 108.716 15.164 107.542 16.6132 107.542C18.0625 107.542 19.2363 108.716 19.2363 110.165Z" fill="#FDB813"/>
<path fill-rule="evenodd" clip-rule="evenodd" d="M32.3495 110.165C32.3495 111.614 31.1757 112.788 29.7265 112.788C28.2773 112.788 27.1035 111.614 27.1035 110.165C27.1035 108.716 28.2773 107.542 29.7265 107.542C31.1757 107.542 32.3495 108.716 32.3495 110.165Z" fill="#FDB813"/>
<path fill-rule="evenodd" clip-rule="evenodd" d="M45.4667 110.165C45.4667 111.614 44.2929 112.788 42.8437 112.788C41.3945 112.788 40.2207 111.614 40.2207 110.165C40.2207 108.716 41.3945 107.542 42.8437 107.542C44.2929 107.542 45.4667 108.716 45.4667 110.165Z" fill="#FDB813"/>
<path fill-rule="evenodd" clip-rule="evenodd" d="M59.455 110.165C59.455 111.614 58.2812 112.788 56.832 112.788C55.3828 112.788 54.209 111.614 54.209 110.165C54.209 108.716 55.3828 107.542 56.832 107.542C58.2812 107.542 59.455 108.716 59.455 110.165Z" fill="#FDB813"/>
<path fill-rule="evenodd" clip-rule="evenodd" d="M72.5702 110.165C72.5702 111.614 71.3964 112.788 69.9472 112.788C68.498 112.788 67.3242 111.614 67.3242 110.165C67.3242 108.716 68.498 107.542 69.9472 107.542C71.3964 107.542 72.5702 108.716 72.5702 110.165Z" fill="#FDB813"/>
<path fill-rule="evenodd" clip-rule="evenodd" d="M86.5595 110.165C86.5595 111.614 85.3857 112.788 83.9365 112.788C82.4873 112.788 81.3135 111.614 81.3135 110.165C81.3135 108.716 82.4873 107.542 83.9365 107.542C85.3857 107.542 86.5595 108.716 86.5595 110.165Z" fill="#FDB813"/>
<path fill-rule="evenodd" clip-rule="evenodd" d="M99.6738 110.165C99.6738 111.614 98.5 112.788 97.0507 112.788C95.6015 112.788 94.4277 111.614 94.4277 110.165C94.4277 108.716 95.6015 107.542 97.0507 107.542C98.5 107.542 99.6738 108.716 99.6738 110.165Z" fill="#FDB813"/>
<path fill-rule="evenodd" clip-rule="evenodd" d="M113.664 110.165C113.664 111.614 112.49 112.788 111.041 112.788C109.592 112.788 108.418 111.614 108.418 110.165C108.418 108.716 109.592 107.542 111.041 107.542C112.49 107.542 113.664 108.716 113.664 110.165Z" fill="#FDB813"/>
<path fill-rule="evenodd" clip-rule="evenodd" d="M126.778 110.165C126.778 111.614 125.604 112.788 124.155 112.788C122.706 112.788 121.532 111.614 121.532 110.165C121.532 108.716 122.706 107.542 124.155 107.542C125.604 107.542 126.778 108.716 126.778 110.165Z" fill="#FDB813"/>
<path fill-rule="evenodd" clip-rule="evenodd" d="M139.894 110.165C139.894 111.614 138.721 112.788 137.271 112.788C135.822 112.788 134.648 111.614 134.648 110.165C134.648 108.716 135.822 107.542 137.271 107.542C138.721 107.542 139.894 108.716 139.894 110.165Z" fill="#FDB813"/>
<path fill-rule="evenodd" clip-rule="evenodd" d="M153.884 110.165C153.884 111.614 152.71 112.788 151.261 112.788C149.811 112.788 148.638 111.614 148.638 110.165C148.638 108.716 149.811 107.542 151.261 107.542C152.71 107.542 153.884 108.716 153.884 110.165Z" fill="#FDB813"/>
<path fill-rule="evenodd" clip-rule="evenodd" d="M5.24603 124.155C5.24603 125.604 4.07223 126.778 2.62301 126.778C1.1738 126.778 0 125.604 0 124.155C0 122.706 1.1738 121.532 2.62301 121.532C4.07223 121.532 5.24603 122.706 5.24603 124.155Z" fill="#FDB813"/>
<path fill-rule="evenodd" clip-rule="evenodd" d="M19.2363 124.155C19.2363 125.604 18.0625 126.778 16.6132 126.778C15.164 126.778 13.9902 125.604 13.9902 124.155C13.9902 122.706 15.164 121.532 16.6132 121.532C18.0625 121.532 19.2363 122.706 19.2363 124.155Z" fill="#FDB813"/>
<path fill-rule="evenodd" clip-rule="evenodd" d="M32.3495 124.155C32.3495 125.604 31.1757 126.778 29.7265 126.778C28.2773 126.778 27.1035 125.604 27.1035 124.155C27.1035 122.706 28.2773 121.532 29.7265 121.532C31.1757 121.532 32.3495 122.706 32.3495 124.155Z" fill="#FDB813"/>
<path fill-rule="evenodd" clip-rule="evenodd" d="M45.4667 124.155C45.4667 125.604 44.2929 126.778 42.8437 126.778C41.3945 126.778 40.2207 125.604 40.2207 124.155C40.2207 122.706 41.3945 121.532 42.8437 121.532C44.2929 121.532 45.4667 122.706 45.4667 124.155Z" fill="#FDB813"/>
<path fill-rule="evenodd" clip-rule="evenodd" d="M59.455 124.155C59.455 125.604 58.2812 126.778 56.832 126.778C55.3828 126.778 54.209 125.604 54.209 124.155C54.209 122.706 55.3828 121.532 56.832 121.532C58.2812 121.532 59.455 122.706 59.455 124.155Z" fill="#FDB813"/>
<path fill-rule="evenodd" clip-rule="evenodd" d="M72.5702 124.155C72.5702 125.604 71.3964 126.778 69.9472 126.778C68.498 126.778 67.3242 125.604 67.3242 124.155C67.3242 122.706 68.498 121.532 69.9472 121.532C71.3964 121.532 72.5702 122.706 72.5702 124.155Z" fill="#FDB813"/>
<path fill-rule="evenodd" clip-rule="evenodd" d="M86.5595 124.155C86.5595 125.604 85.3857 126.778 83.9365 126.778C82.4873 126.778 81.3135 125.604 81.3135 124.155C81.3135 122.706 82.4873 121.532 83.9365 121.532C85.3857 121.532 86.5595 122.706 86.5595 124.155Z" fill="#FDB813"/>
<path fill-rule="evenodd" clip-rule="evenodd" d="M99.6738 124.155C99.6738 125.604 98.5 126.778 97.0507 126.778C95.6015 126.778 94.4277 125.604 94.4277 124.155C94.4277 122.706 95.6015 121.532 97.0507 121.532C98.5 121.532 99.6738 122.706 99.6738 124.155Z" fill="#FDB813"/>
<path fill-rule="evenodd" clip-rule="evenodd" d="M113.664 124.155C113.664 125.604 112.49 126.778 111.041 126.778C109.592 126.778 108.418 125.604 108.418 124.155C108.418 122.706 109.592 121.532 111.041 121.532C112.49 121.532 113.664 122.706 113.664 124.155Z" fill="#FDB813"/>
<path fill-rule="evenodd" clip-rule="evenodd" d="M126.778 124.155C126.778 125.604 125.604 126.778 124.155 126.778C122.706 126.778 121.532 125.604 121.532 124.155C121.532 122.706 122.706 121.532 124.155 121.532C125.604 121.532 126.778 122.706 126.778 124.155Z" fill="#FDB813"/>
<path fill-rule="evenodd" clip-rule="evenodd" d="M139.894 124.155C139.894 125.604 138.721 126.778 137.271 126.778C135.822 126.778 134.648 125.604 134.648 124.155C134.648 122.706 135.822 121.532 137.271 121.532C138.721 121.532 139.894 122.706 139.894 124.155Z" fill="#FDB813"/>
<path fill-rule="evenodd" clip-rule="evenodd" d="M153.884 124.155C153.884 125.604 152.71 126.778 151.261 126.778C149.811 126.778 148.638 125.604 148.638 124.155C148.638 122.706 149.811 121.532 151.261 121.532C152.71 121.532 153.884 122.706 153.884 124.155Z" fill="#FDB813"/>
<path fill-rule="evenodd" clip-rule="evenodd" d="M5.24603 137.271C5.24603 138.72 4.07223 139.894 2.62301 139.894C1.1738 139.894 0 138.72 0 137.271C0 135.822 1.1738 134.648 2.62301 134.648C4.07223 134.648 5.24603 135.822 5.24603 137.271Z" fill="#FDB813"/>
<path fill-rule="evenodd" clip-rule="evenodd" d="M19.2363 137.271C19.2363 138.72 18.0625 139.894 16.6132 139.894C15.164 139.894 13.9902 138.72 13.9902 137.271C13.9902 135.822 15.164 134.648 16.6132 134.648C18.0625 134.648 19.2363 135.822 19.2363 137.271Z" fill="#FDB813"/>
<path fill-rule="evenodd" clip-rule="evenodd" d="M32.3505 137.271C32.3505 138.72 31.1767 139.894 29.7275 139.894C28.2783 139.894 27.1045 138.72 27.1045 137.271C27.1045 135.822 28.2783 134.648 29.7275 134.648C31.1767 134.648 32.3505 135.822 32.3505 137.271Z" fill="#FDB813"/>
<path fill-rule="evenodd" clip-rule="evenodd" d="M45.4658 137.271C45.4658 138.72 44.292 139.894 42.8427 139.894C41.3935 139.894 40.2197 138.72 40.2197 137.271C40.2197 135.822 41.3935 134.648 42.8427 134.648C44.292 134.648 45.4658 135.822 45.4658 137.271Z" fill="#FDB813"/>
<path fill-rule="evenodd" clip-rule="evenodd" d="M59.455 137.271C59.455 138.72 58.2812 139.894 56.832 139.894C55.3828 139.894 54.209 138.72 54.209 137.271C54.209 135.822 55.3828 134.648 56.832 134.648C58.2812 134.648 59.455 135.822 59.455 137.271Z" fill="#FDB813"/>
<path fill-rule="evenodd" clip-rule="evenodd" d="M72.5702 137.271C72.5702 138.72 71.3964 139.894 69.9472 139.894C68.498 139.894 67.3242 138.72 67.3242 137.271C67.3242 135.822 68.498 134.648 69.9472 134.648C71.3964 134.648 72.5702 135.822 72.5702 137.271Z" fill="#FDB813"/>
<path fill-rule="evenodd" clip-rule="evenodd" d="M86.5595 137.271C86.5595 138.72 85.3857 139.894 83.9365 139.894C82.4873 139.894 81.3135 138.72 81.3135 137.271C81.3135 135.822 82.4873 134.648 83.9365 134.648C85.3857 134.648 86.5595 135.822 86.5595 137.271Z" fill="#FDB813"/>
<path fill-rule="evenodd" clip-rule="evenodd" d="M99.6747 137.271C99.6747 138.72 98.5009 139.894 97.0517 139.894C95.6025 139.894 94.4287 138.72 94.4287 137.271C94.4287 135.822 95.6025 134.648 97.0517 134.648C98.5009 134.648 99.6747 135.822 99.6747 137.271Z" fill="#FDB813"/>
<path fill-rule="evenodd" clip-rule="evenodd" d="M113.664 137.271C113.664 138.72 112.49 139.894 111.041 139.894C109.592 139.894 108.418 138.72 108.418 137.271C108.418 135.822 109.592 134.648 111.041 134.648C112.49 134.648 113.664 135.822 113.664 137.271Z" fill="#FDB813"/>
<path fill-rule="evenodd" clip-rule="evenodd" d="M126.778 137.271C126.778 138.72 125.604 139.894 124.155 139.894C122.706 139.894 121.532 138.72 121.532 137.271C121.532 135.822 122.706 134.648 124.155 134.648C125.604 134.648 126.778 135.822 126.778 137.271Z" fill="#FDB813"/>
<path fill-rule="evenodd" clip-rule="evenodd" d="M139.894 137.271C139.894 138.72 138.721 139.894 137.271 139.894C135.822 139.894 134.648 138.72 134.648 137.271C134.648 135.822 135.822 134.648 137.271 134.648C138.721 134.648 139.894 135.822 139.894 137.271Z" fill="#FDB813"/>
<path fill-rule="evenodd" clip-rule="evenodd" d="M153.884 137.271C153.884 138.72 152.71 139.894 151.261 139.894C149.811 139.894 148.638 138.72 148.638 137.271C148.638 135.822 149.811 134.648 151.261 134.648C152.71 134.648 153.884 135.822 153.884 137.271Z" fill="#FDB813"/>
<path fill-rule="evenodd" clip-rule="evenodd" d="M5.24603 151.261C5.24603 152.71 4.07223 153.884 2.62301 153.884C1.1738 153.884 0 152.71 0 151.261C0 149.811 1.1738 148.638 2.62301 148.638C4.07223 148.638 5.24603 149.811 5.24603 151.261Z" fill="#FDB813"/>
<path fill-rule="evenodd" clip-rule="evenodd" d="M19.2363 151.261C19.2363 152.71 18.0625 153.884 16.6132 153.884C15.164 153.884 13.9902 152.71 13.9902 151.261C13.9902 149.811 15.164 148.638 16.6132 148.638C18.0625 148.638 19.2363 149.811 19.2363 151.261Z" fill="#FDB813"/>
<path fill-rule="evenodd" clip-rule="evenodd" d="M32.3505 151.261C32.3505 152.71 31.1767 153.884 29.7275 153.884C28.2783 153.884 27.1045 152.71 27.1045 151.261C27.1045 149.811 28.2783 148.638 29.7275 148.638C31.1767 148.638 32.3505 149.811 32.3505 151.261Z" fill="#FDB813"/>
<path fill-rule="evenodd" clip-rule="evenodd" d="M45.4658 151.261C45.4658 152.71 44.292 153.884 42.8427 153.884C41.3935 153.884 40.2197 152.71 40.2197 151.261C40.2197 149.811 41.3935 148.638 42.8427 148.638C44.292 148.638 45.4658 149.811 45.4658 151.261Z" fill="#FDB813"/>
<path fill-rule="evenodd" clip-rule="evenodd" d="M59.455 151.261C59.455 152.71 58.2812 153.884 56.832 153.884C55.3828 153.884 54.209 152.71 54.209 151.261C54.209 149.811 55.3828 148.638 56.832 148.638C58.2812 148.638 59.455 149.811 59.455 151.261Z" fill="#FDB813"/>
<path fill-rule="evenodd" clip-rule="evenodd" d="M72.5702 151.261C72.5702 152.71 71.3964 153.884 69.9472 153.884C68.498 153.884 67.3242 152.71 67.3242 151.261C67.3242 149.811 68.498 148.638 69.9472 148.638C71.3964 148.638 72.5702 149.811 72.5702 151.261Z" fill="#FDB813"/>
<path fill-rule="evenodd" clip-rule="evenodd" d="M86.5595 151.261C86.5595 152.71 85.3857 153.884 83.9365 153.884C82.4873 153.884 81.3135 152.71 81.3135 151.261C81.3135 149.811 82.4873 148.638 83.9365 148.638C85.3857 148.638 86.5595 149.811 86.5595 151.261Z" fill="#FDB813"/>
<path fill-rule="evenodd" clip-rule="evenodd" d="M99.6747 151.261C99.6747 152.71 98.5009 153.884 97.0517 153.884C95.6025 153.884 94.4287 152.71 94.4287 151.261C94.4287 149.811 95.6025 148.638 97.0517 148.638C98.5009 148.638 99.6747 149.811 99.6747 151.261Z" fill="#FDB813"/>
<path fill-rule="evenodd" clip-rule="evenodd" d="M113.664 151.261C113.664 152.71 112.49 153.884 111.041 153.884C109.592 153.884 108.418 152.71 108.418 151.261C108.418 149.811 109.592 148.638 111.041 148.638C112.49 148.638 113.664 149.811 113.664 151.261Z" fill="#FDB813"/>
<path fill-rule="evenodd" clip-rule="evenodd" d="M126.778 151.261C126.778 152.71 125.604 153.884 124.155 153.884C122.706 153.884 121.532 152.71 121.532 151.261C121.532 149.811 122.706 148.638 124.155 148.638C125.604 148.638 126.778 149.811 126.778 151.261Z" fill="#FDB813"/>
<path fill-rule="evenodd" clip-rule="evenodd" d="M139.894 151.261C139.894 152.71 138.721 153.884 137.271 153.884C135.822 153.884 134.648 152.71 134.648 151.261C134.648 149.811 135.822 148.638 137.271 148.638C138.721 148.638 139.894 149.811 139.894 151.261Z" fill="#FDB813"/>
<path fill-rule="evenodd" clip-rule="evenodd" d="M153.884 151.261C153.884 152.71 152.71 153.884 151.261 153.884C149.811 153.884 148.638 152.71 148.638 151.261C148.638 149.811 149.811 148.638 151.261 148.638C152.71 148.638 153.884 149.811 153.884 151.261Z" fill="#FDB813"/>
<path fill-rule="evenodd" clip-rule="evenodd" d="M19.2363 164.377C19.2363 165.826 18.0625 167 16.6132 167C15.164 167 13.9902 165.826 13.9902 164.377C13.9902 162.928 15.164 161.754 16.6132 161.754C18.0625 161.754 19.2363 162.928 19.2363 164.377Z" fill="#FDB813"/>
<path fill-rule="evenodd" clip-rule="evenodd" d="M5.24603 164.377C5.24603 165.826 4.07223 167 2.62301 167C1.1738 167 0 165.826 0 164.377C0 162.928 1.1738 161.754 2.62301 161.754C4.07223 161.754 5.24603 162.928 5.24603 164.377Z" fill="#FDB813"/>
<path fill-rule="evenodd" clip-rule="evenodd" d="M32.3495 164.377C32.3495 165.826 31.1757 167 29.7265 167C28.2773 167 27.1035 165.826 27.1035 164.377C27.1035 162.928 28.2773 161.754 29.7265 161.754C31.1757 161.754 32.3495 162.928 32.3495 164.377Z" fill="#FDB813"/>
<path fill-rule="evenodd" clip-rule="evenodd" d="M45.4667 164.377C45.4667 165.826 44.2929 167 42.8437 167C41.3945 167 40.2207 165.826 40.2207 164.377C40.2207 162.928 41.3945 161.754 42.8437 161.754C44.2929 161.754 45.4667 162.928 45.4667 164.377Z" fill="#FDB813"/>
<path fill-rule="evenodd" clip-rule="evenodd" d="M59.455 164.377C59.455 165.826 58.2812 167 56.832 167C55.3828 167 54.209 165.826 54.209 164.377C54.209 162.928 55.3828 161.754 56.832 161.754C58.2812 161.754 59.455 162.928 59.455 164.377Z" fill="#FDB813"/>
<path fill-rule="evenodd" clip-rule="evenodd" d="M72.5702 164.377C72.5702 165.826 71.3964 167 69.9472 167C68.498 167 67.3242 165.826 67.3242 164.377C67.3242 162.928 68.498 161.754 69.9472 161.754C71.3964 161.754 72.5702 162.928 72.5702 164.377Z" fill="#FDB813"/>
<path fill-rule="evenodd" clip-rule="evenodd" d="M86.5595 164.377C86.5595 165.826 85.3857 167 83.9365 167C82.4873 167 81.3135 165.826 81.3135 164.377C81.3135 162.928 82.4873 161.754 83.9365 161.754C85.3857 161.754 86.5595 162.928 86.5595 164.377Z" fill="#FDB813"/>
<path fill-rule="evenodd" clip-rule="evenodd" d="M99.6738 164.377C99.6738 165.826 98.5 167 97.0507 167C95.6015 167 94.4277 165.826 94.4277 164.377C94.4277 162.928 95.6015 161.754 97.0507 161.754C98.5 161.754 99.6738 162.928 99.6738 164.377Z" fill="#FDB813"/>
<path fill-rule="evenodd" clip-rule="evenodd" d="M113.664 164.377C113.664 165.826 112.49 167 111.041 167C109.592 167 108.418 165.826 108.418 164.377C108.418 162.928 109.592 161.754 111.041 161.754C112.49 161.754 113.664 162.928 113.664 164.377Z" fill="#FDB813"/>
<path fill-rule="evenodd" clip-rule="evenodd" d="M126.778 164.377C126.778 165.826 125.604 167 124.155 167C122.706 167 121.532 165.826 121.532 164.377C121.532 162.928 122.706 161.754 124.155 161.754C125.604 161.754 126.778 162.928 126.778 164.377Z" fill="#FDB813"/>
<path fill-rule="evenodd" clip-rule="evenodd" d="M139.894 164.377C139.894 165.826 138.721 167 137.271 167C135.822 167 134.648 165.826 134.648 164.377C134.648 162.928 135.822 161.754 137.271 161.754C138.721 161.754 139.894 162.928 139.894 164.377Z" fill="#FDB813"/>
<path fill-rule="evenodd" clip-rule="evenodd" d="M153.884 164.377C153.884 165.826 152.71 167 151.261 167C149.811 167 148.638 165.826 148.638 164.377C148.638 162.928 149.811 161.754 151.261 161.754C152.71 161.754 153.884 162.928 153.884 164.377Z" fill="#FDB813"/>
<path fill-rule="evenodd" clip-rule="evenodd" d="M19.2363 2.62301C19.2363 4.07223 18.0625 5.24603 16.6132 5.24603C15.164 5.24603 13.9902 4.07223 13.9902 2.62301C13.9902 1.1738 15.164 0 16.6132 0C18.0625 0 19.2363 1.1738 19.2363 2.62301Z" fill="#FDB813"/>
<path fill-rule="evenodd" clip-rule="evenodd" d="M5.24603 2.62301C5.24603 4.07223 4.07223 5.24603 2.62301 5.24603C1.1738 5.24603 0 4.07223 0 2.62301C0 1.1738 1.1738 0 2.62301 0C4.07223 0 5.24603 1.1738 5.24603 2.62301Z" fill="#FDB813"/>
<path fill-rule="evenodd" clip-rule="evenodd" d="M32.3505 2.62301C32.3505 4.07223 31.1767 5.24603 29.7275 5.24603C28.2783 5.24603 27.1045 4.07223 27.1045 2.62301C27.1045 1.1738 28.2783 0 29.7275 0C31.1767 0 32.3505 1.1738 32.3505 2.62301Z" fill="#FDB813"/>
<path fill-rule="evenodd" clip-rule="evenodd" d="M45.4658 2.62301C45.4658 4.07223 44.292 5.24603 42.8427 5.24603C41.3935 5.24603 40.2197 4.07223 40.2197 2.62301C40.2197 1.1738 41.3935 0 42.8427 0C44.292 0 45.4658 1.1738 45.4658 2.62301Z" fill="#FDB813"/>
<path fill-rule="evenodd" clip-rule="evenodd" d="M59.455 2.62301C59.455 4.07223 58.2812 5.24603 56.832 5.24603C55.3828 5.24603 54.209 4.07223 54.209 2.62301C54.209 1.1738 55.3828 0 56.832 0C58.2812 0 59.455 1.1738 59.455 2.62301Z" fill="#FDB813"/>
<path fill-rule="evenodd" clip-rule="evenodd" d="M72.5702 2.62301C72.5702 4.07223 71.3964 5.24603 69.9472 5.24603C68.498 5.24603 67.3242 4.07223 67.3242 2.62301C67.3242 1.1738 68.498 0 69.9472 0C71.3964 0 72.5702 1.1738 72.5702 2.62301Z" fill="#FDB813"/>
<path fill-rule="evenodd" clip-rule="evenodd" d="M86.5595 2.62301C86.5595 4.07223 85.3857 5.24603 83.9365 5.24603C82.4873 5.24603 81.3135 4.07223 81.3135 2.62301C81.3135 1.1738 82.4873 0 83.9365 0C85.3857 0 86.5595 1.1738 86.5595 2.62301Z" fill="#FDB813"/>
<path fill-rule="evenodd" clip-rule="evenodd" d="M99.6747 2.62301C99.6747 4.07223 98.5009 5.24603 97.0517 5.24603C95.6025 5.24603 94.4287 4.07223 94.4287 2.62301C94.4287 1.1738 95.6025 0 97.0517 0C98.5009 0 99.6747 1.1738 99.6747 2.62301Z" fill="#FDB813"/>
<path fill-rule="evenodd" clip-rule="evenodd" d="M113.664 2.62301C113.664 4.07223 112.49 5.24603 111.041 5.24603C109.592 5.24603 108.418 4.07223 108.418 2.62301C108.418 1.1738 109.592 0 111.041 0C112.49 0 113.664 1.1738 113.664 2.62301Z" fill="#FDB813"/>
<path fill-rule="evenodd" clip-rule="evenodd" d="M126.778 2.62301C126.778 4.07223 125.604 5.24603 124.155 5.24603C122.706 5.24603 121.532 4.07223 121.532 2.62301C121.532 1.1738 122.706 0 124.155 0C125.604 0 126.778 1.1738 126.778 2.62301Z" fill="#FDB813"/>
<path fill-rule="evenodd" clip-rule="evenodd" d="M139.894 2.62301C139.894 4.07223 138.721 5.24603 137.271 5.24603C135.822 5.24603 134.648 4.07223 134.648 2.62301C134.648 1.1738 135.822 0 137.271 0C138.721 0 139.894 1.1738 139.894 2.62301Z" fill="#FDB813"/>
<path fill-rule="evenodd" clip-rule="evenodd" d="M153.884 2.62301C153.884 4.07223 152.71 5.24603 151.261 5.24603C149.811 5.24603 148.638 4.07223 148.638 2.62301C148.638 1.1738 149.811 0 151.261 0C152.71 0 153.884 1.1738 153.884 2.62301Z" fill="#FDB813"/>
</svg>
