<svg width="80" height="80" viewBox="0 0 80 80" fill="none" xmlns="http://www.w3.org/2000/svg">
<g clip-path="url(#clip0_202_2273)">
<path fill-rule="evenodd" clip-rule="evenodd" d="M36.2202 0.172674C33.1192 0.46921 29.1619 1.36382 26.2862 2.41812C24.0538 3.23672 19.994 5.26947 18.0731 6.53053C12.1085 10.446 7.25618 15.9352 4.14208 22.2899C2.14808 26.3587 1.04017 29.8466 0.366071 34.1764C-0.122024 37.3121 -0.122024 42.7708 0.366071 45.9065C1.4125 52.6281 4.01833 58.816 8.09126 64.2504C9.4878 66.1139 12.8134 69.5509 14.7096 71.09C17.986 73.7496 22.5589 76.3363 26.3834 77.6932C30.9636 79.3183 34.9809 80 39.9748 80C43.9379 80 46.2138 79.7274 49.7625 78.8276C52.8309 78.0495 54.6697 77.3651 57.7308 75.8616C62.0105 73.7595 65.2554 71.3876 68.6891 67.8519C71.8951 64.5507 73.847 61.7782 75.8808 57.6365C77.6885 53.9558 78.8125 50.4923 79.4591 46.6103C80.8023 38.5455 79.6265 30.1858 76.1254 22.9077C75.4611 21.527 74.9059 20.5827 74.6313 20.3668C72.9822 19.0698 70.6393 20.1616 70.6377 22.228C70.6373 22.775 70.8397 23.3763 71.4803 24.7304C73.9469 29.9445 74.9209 34.2222 74.9309 39.8851C74.937 43.2819 74.7859 44.7682 74.139 47.6769C70.9708 61.9237 59.2609 72.6526 44.668 74.6789C42.0911 75.0368 37.6646 75.0061 34.9953 74.6118C24.9806 73.1331 16.2427 67.5349 10.6647 59.0235C8.57544 55.8358 6.67 51.3023 5.87434 47.6269C4.78411 42.59 4.81446 36.8771 5.95694 32.065C7.89978 23.8815 12.4896 16.914 19.2464 11.891C23.8472 8.47084 29.1491 6.29421 35.1251 5.37222C37.5875 4.99232 42.4942 4.99483 44.9752 5.37738C50.2897 6.19677 55.0575 8.03229 59.5 10.9689C61.3506 12.1924 61.8999 12.3551 62.8957 11.975C64.5606 11.3392 65.0602 9.39079 63.8977 8.06701C63.3878 7.48661 61.2637 6.06414 59.2952 4.98497C52.2694 1.13344 44.0646 -0.577581 36.2202 0.172674ZM66.7737 12.9772C65.8521 13.539 65.3693 14.6709 65.6332 15.6509C65.8444 16.4351 66.7485 17.5768 67.4046 17.888C69.3496 18.8108 71.4744 17.1315 70.9315 15.1005C70.7327 14.356 69.8587 13.2314 69.2244 12.9034C68.5838 12.5723 67.3784 12.6086 66.7737 12.9772ZM34.1865 21.4008C33.8853 21.5636 33.4817 21.971 33.2894 22.3062L32.9401 22.9156L32.9375 31.3221L32.9349 39.7286H30.5433C28.3739 39.7286 28.0867 39.7613 27.4542 40.0805C26.5057 40.5591 26.0159 41.4129 26.1015 42.4381C26.1716 43.2796 26.5264 43.8542 27.3015 44.3816C27.7857 44.7111 27.9814 44.7335 30.3768 44.7335H32.9349V46.2193V47.7051H30.5433C28.3739 47.7051 28.0867 47.7378 27.4542 48.057C26.5057 48.5356 26.0159 49.3894 26.1015 50.4146C26.1716 51.256 26.5264 51.8306 27.3015 52.358C27.7857 52.6876 27.9814 52.7099 30.3768 52.7099H32.9349V54.915C32.9349 57.4354 33.0881 57.958 34.0105 58.5845C35.1217 59.3394 36.6553 59.0072 37.5355 57.8213C37.8268 57.4287 37.8683 57.1236 37.9132 55.0451L37.9636 52.7099L43.7797 52.7034C48.9587 52.6976 49.6502 52.6675 50.0918 52.4297C50.9029 51.9927 51.2926 51.363 51.3615 50.3781C51.4293 49.4083 51.103 48.7431 50.2495 48.1105C49.8227 47.7941 49.6126 47.7817 43.8745 47.7372L37.941 47.691V46.2122V44.7335L40.7179 44.7324C42.9531 44.7314 43.7494 44.6703 44.8005 44.4183C48.1569 43.6138 51.0173 41.3496 52.5506 38.2833C53.5607 36.2631 53.8119 35.196 53.8119 32.9252C53.8119 30.6622 53.5649 29.6115 52.5448 27.5353C51.9296 26.2833 51.5983 25.8376 50.3939 24.6418C48.7794 23.039 47.7697 22.3886 45.8039 21.6855L44.4333 21.1951L39.5837 21.1499C35.0729 21.1079 34.6957 21.1254 34.1865 21.4008ZM45.0145 26.7879C50.5706 29.5351 49.9419 37.5922 44.028 39.4323C43.2564 39.6725 42.5887 39.7286 40.5084 39.7286H37.941V32.913V26.0974L40.8832 26.1487L43.8254 26.2L45.0145 26.7879Z" fill="url(#paint0_linear_202_2273)"/>
</g>
<defs>
<linearGradient id="paint0_linear_202_2273" x1="-3.6443e-08" y1="40" x2="80" y2="40" gradientUnits="userSpaceOnUse">
<stop stop-color="#FDB813"/>
<stop offset="1" stop-color="#FF7246"/>
</linearGradient>
<clipPath id="clip0_202_2273">
<rect width="80" height="80" fill="white"/>
</clipPath>
</defs>
</svg>
