<svg width="80" height="80" viewBox="0 0 80 80" fill="none" xmlns="http://www.w3.org/2000/svg">
<path fill-rule="evenodd" clip-rule="evenodd" d="M27.717 1.33076C27.3405 1.55059 26.9417 2.0332 26.4538 2.85964C23.692 7.53752 19.1283 10.641 13.8275 11.4459C13.0372 11.566 12.0306 11.6647 11.5906 11.6651C10.5027 11.6664 9.68691 12.1024 9.2841 12.8979C8.97292 13.5124 8.97141 13.6008 9.02932 27.4061C9.09162 42.2284 9.08602 42.1095 9.88545 46.0492C12.4637 58.7569 20.7939 69.9029 32.1898 75.8929C35.0333 77.3875 39.0866 79 40 79C40.7544 79 44.1689 77.6748 46.8653 76.3354C53.1082 73.2346 58.2342 68.9173 62.4543 63.2056C66.1525 58.2004 68.855 52.128 70.0801 46.0713C70.8818 42.1083 70.876 42.2335 70.94 27.3933L71 13.4906L70.6522 12.8673C70.2094 12.0734 69.4402 11.6664 68.3804 11.6651C65.5702 11.662 61.8158 10.5186 59.2438 8.88298C57.1009 7.52 54.9045 5.20947 53.5155 2.85705C52.3127 0.819662 53.6449 1.00171 39.9649 1.00582C28.342 1.00932 28.2636 1.0113 27.717 1.33076ZM50.6107 6.75312C52.3402 9.23701 54.867 11.5858 57.47 13.1291C59.8215 14.5235 63.1526 15.7064 65.5858 16.0112L66.464 16.1212L66.4077 28.5562C66.3544 40.3302 66.3344 41.0972 66.032 42.9821C64.7948 50.69 61.8475 57.1375 56.9146 62.9268C53.0501 67.4624 47.6524 71.2941 41.8775 73.6009L40.065 74.325L39.0802 73.9759C33.4286 71.9717 27.3634 67.8495 23.3819 63.3063C18.1606 57.3489 15.0373 50.4653 13.8094 42.2101C13.6842 41.3684 13.6095 37.15 13.5676 28.5734L13.507 16.1555L15.005 15.8979C20.7041 14.9182 25.9929 11.5556 29.3229 6.79502L30.178 5.57249H39.9834H49.7887L50.6107 6.75312ZM32.6246 10.4157C32.36 10.5587 31.6701 11.2243 31.0914 11.8946C28.5161 14.8772 24.9643 17.3521 21.0049 18.9224C20.0094 19.3173 19.0329 19.7827 18.835 19.9568C18.0581 20.6402 18.0607 20.6069 18.0607 30.0677C18.0607 35.1467 18.1287 39.5871 18.2214 40.5459C19.3848 52.5903 26.7122 63.1404 37.5662 68.3984C39.7097 69.4368 40.2572 69.4442 42.2847 68.4629C53.2923 63.1352 60.6281 52.5798 61.7474 40.4582C61.8401 39.4544 61.9095 34.9799 61.9098 29.98C61.9103 20.6137 61.9126 20.643 61.136 19.9542C60.938 19.7789 59.9588 19.3173 58.9598 18.9285C55.1665 17.4525 50.9907 14.5022 48.6798 11.6655C47.3704 10.058 47.8521 10.1418 39.9537 10.1491C33.7919 10.1549 33.0574 10.1815 32.6246 10.4157ZM46.2646 15.7964C47.6876 17.259 49.6826 18.9313 51.3691 20.0752C52.7475 21.0101 55.4889 22.4995 56.7315 22.9885L57.3741 23.2414V31.0179C57.3741 35.4515 57.3053 39.4303 57.2141 40.2737C56.0999 50.5793 50.0449 59.4212 40.9305 64.052L39.9855 64.5322L39.0847 64.0741C29.8447 59.3747 23.7743 50.4585 22.7471 40.0773C22.6436 39.0311 22.5984 35.5541 22.6269 30.821L22.6724 23.2405L24.1845 22.555C27.3774 21.1073 30.3481 19.0435 33.078 16.3768L34.7689 14.725L39.9896 14.7189L45.2102 14.7128L46.2646 15.7964ZM49.9802 30.5575C49.5713 30.6544 48.14 32.0151 42.9892 37.2034L36.5123 43.7275L33.6734 40.8815C30.2534 37.4534 29.8204 37.2057 28.3894 37.8603C27.3692 38.327 26.8784 39.6054 27.2934 40.7149C27.3817 40.9507 29.1339 42.8482 31.187 44.9315C35.245 49.049 35.7112 49.4011 36.8581 49.214C37.4487 49.1178 37.9897 48.6094 45.0178 41.5474C53.0495 33.4766 53.0008 33.5348 52.7693 32.2922C52.6444 31.6213 51.6846 30.5561 51.2048 30.5561C51.0356 30.5561 50.8064 30.529 50.6957 30.4958C50.5848 30.4627 50.2629 30.4905 49.9802 30.5575Z" fill="url(#paint0_linear_202_2270)"/>
<defs>
<linearGradient id="paint0_linear_202_2270" x1="9" y1="40" x2="71" y2="40" gradientUnits="userSpaceOnUse">
<stop stop-color="#FDB813"/>
<stop offset="1" stop-color="#FF7246"/>
</linearGradient>
</defs>
</svg>
