<svg width="36" height="48" viewBox="0 0 36 48" fill="none" xmlns="http://www.w3.org/2000/svg">
<path fill-rule="evenodd" clip-rule="evenodd" d="M16.6888 0.887766C14.7431 1.12701 12.8799 1.79925 11.2567 2.84786C10.3542 3.43092 8.70346 5.02514 8.09974 5.89673C7.23912 7.13936 6.65292 8.44477 6.27201 9.96708C6.09828 10.6613 6.07552 11.0979 6.03768 14.4671L5.99582 18.1982H4.99321C4.39521 18.1982 3.76855 18.2541 3.44018 18.3367C1.82478 18.7431 0.580536 19.9486 0.157485 21.5172C-0.0524951 22.2956 -0.0524951 43.0455 0.157485 43.8239C0.580536 45.3925 1.82478 46.598 3.44018 47.0044C3.92261 47.1258 5.72262 47.1429 18 47.1429C30.2774 47.1429 32.0774 47.1258 32.5598 47.0044C34.1752 46.598 35.4195 45.3925 35.8425 43.8239C36.0525 43.0455 36.0525 22.2956 35.8425 21.5172C35.4195 19.9486 34.1752 18.7431 32.5598 18.3367C32.2315 18.2541 31.6048 18.1982 31.0068 18.1982H30.0042L29.9623 14.4671C29.9245 11.0979 29.9017 10.6613 29.728 9.96708C29.1472 7.64626 28.1375 5.89302 26.4413 4.26C24.7019 2.58546 22.8839 1.61174 20.5288 1.09318C19.7469 0.921052 17.4275 0.796952 16.6888 0.887766ZM20.1678 3.98421C21.8661 4.41513 23.1586 5.14616 24.4155 6.38653C25.3059 7.26527 25.9324 8.18526 26.3688 9.25513C26.9085 10.5783 26.9251 10.7268 26.9663 14.6027L27.0045 18.1982H18H8.99548L9.03126 14.6027C9.06423 11.277 9.08183 10.9554 9.26568 10.3157C9.74184 8.65941 10.4825 7.43044 11.7128 6.25528C13.1594 4.87336 14.5574 4.20338 16.8761 3.78106C17.4253 3.68093 19.4701 3.8072 20.1678 3.98421ZM32.2935 21.3244C32.4358 21.427 32.6391 21.6233 32.7453 21.7607C32.9374 22.0091 32.9385 22.0647 32.9629 32.5418C32.9902 44.1991 33.0287 43.4575 32.3703 43.9425L32.0164 44.2032H18H3.98358L3.62975 43.9425C2.97574 43.4608 3.01479 44.1759 3.01479 32.6793C3.01479 25.5332 3.04607 22.2007 3.11472 22.0257C3.24753 21.687 3.55988 21.3684 3.90454 21.2199C4.13578 21.1203 6.64814 21.1023 18.1102 21.1184C32.0123 21.1379 32.0353 21.1382 32.2935 21.3244ZM17.3177 25.9776C15.2391 26.3294 13.7302 28.346 14.061 30.3302C14.2581 31.5122 15.1472 32.7414 16.1076 33.1596L16.5015 33.3312V35.8085C16.5015 38.0942 16.5157 38.3128 16.6859 38.6349C17.2216 39.649 18.7784 39.649 19.3141 38.6349C19.4843 38.3128 19.4985 38.0942 19.4985 35.8085V33.3312L19.8924 33.1596C20.8528 32.7414 21.7419 31.5122 21.939 30.3302C22.1685 28.9539 21.4647 27.3776 20.2832 26.6218C19.4085 26.0622 18.2739 25.8158 17.3177 25.9776ZM18.4235 28.9238C18.7095 29.0549 19.0302 29.5054 19.0302 29.7761C19.0302 29.8357 18.9637 30.0197 18.8825 30.1851C18.702 30.5525 18.1986 30.8077 17.8151 30.7264C17.4694 30.653 17.092 30.2885 17.016 29.9546C16.934 29.5936 17.1952 29.1016 17.5618 28.927C17.9373 28.7482 18.0394 28.7477 18.4235 28.9238Z" fill="#333333"/>
</svg>
