<svg width="48" height="38" viewBox="0 0 48 38" fill="none" xmlns="http://www.w3.org/2000/svg">
<path fill-rule="evenodd" clip-rule="evenodd" d="M47.1184 4.19496H0.0978765V0.64624H47.1184V4.19496ZM47.1182 37.9077H0.0976562V34.359H47.1182V37.9077ZM14.8249 20.5367H12.8022V18.2123H10.0874V20.5367H6.75161L12.1811 13.0667H9.16474L3.30935 20.9448V22.8789H9.99868V25.4872H12.8022V22.8789H14.8249V20.5367ZM28.1407 25.4872L28.1052 15.9411H25.5146L22.2675 21.4594L19.2156 15.9411H16.3234V25.4872H18.8253V19.756L21.611 24.5645H22.7821L25.6388 19.7737V25.4872H28.1407ZM42.5738 15.9411L42.6093 25.4872H40.1075V19.7737L37.2508 24.5645H36.0797L33.2939 19.756V25.4872H30.7921V15.9411H33.6843L36.7362 21.4594L39.9833 15.9411H42.5738Z" fill="#333333"/>
</svg>
