<svg width="90" height="90" viewBox="0 0 90 90" fill="none" xmlns="http://www.w3.org/2000/svg">
<g clip-path="url(#clip0_15_387)">
<rect width="90" height="90" rx="10" fill="white"/>
<path d="M86.4919 61.3179H-0.65625V57.4086H86.4919V61.3179Z" fill="black"/>
<path d="M23.9922 45.6943H27.8673V34.0051H23.9922V45.6943Z" fill="black"/>
<path d="M50.1777 45.6943H54.0501V34.0051H50.1777V45.6943Z" fill="black"/>
<path d="M101.788 30.3913L98.2121 33.9692H85.3148V30.0638H101.648C101.754 30.0638 101.841 30.1501 101.841 30.2583C101.841 30.3088 101.823 30.3559 101.788 30.3913ZM86.4875 45.6938V49.602H80.2688C78.085 49.602 76.3269 47.8444 76.3269 45.6584V14.4292H81.442V22.2468H86.4875V26.8678C86.4875 26.976 86.4006 27.0629 86.2929 27.0629C85.1124 26.4746 83.8843 26.155 82.5798 26.155H81.442V45.6938H86.4875ZM75.4779 49.602H69.6815V26.155H65.7749V49.602H60.6958V26.155C60.6958 24.8472 60.3733 23.614 59.808 22.5311C59.7851 22.3337 59.8731 22.2468 59.9802 22.2468H70.8552C73.0154 22.2507 74.7595 23.9931 74.7623 26.1455V45.6938C74.7623 46.9982 75.0848 48.232 75.6478 49.3132C75.6742 49.5151 75.5867 49.602 75.4779 49.602ZM59.1323 49.602H49.0054C46.8227 49.602 45.063 47.8444 45.063 45.6584V34.0045C45.063 31.8219 46.8227 30.0638 49.0054 30.0638H54.0503V26.1898H49.3951C48.3677 26.2879 47.3976 26.5829 46.5244 27.0405C46.3225 27.0629 46.2345 26.9766 46.2345 26.8694V22.2468H55.1876C57.3731 22.2468 59.1323 24.0049 59.1323 26.1898V49.602ZM43.5 27.3265C41.3409 27.3265 39.5912 29.0751 39.5912 31.2353V49.602H34.5098V26.155C34.5098 24.841 34.1863 23.6017 33.6126 22.5154C33.5997 22.3337 33.6871 22.2468 33.7943 22.2468H39.5912V24.4816C41.0016 23.0986 42.933 22.2468 45.063 22.2468V27.6518C44.5846 27.4431 44.0541 27.3265 43.5 27.3265ZM32.9474 49.602H22.8211C20.6368 49.602 18.8792 47.8444 18.8792 45.6584V34.0045C18.8792 31.8219 20.6368 30.0638 22.8211 30.0638H27.8672V26.1898H23.2126C22.1835 26.2879 21.2138 26.5829 20.3407 27.0405C20.1382 27.0629 20.0513 26.9766 20.0513 26.8694V22.2468H29.0039C31.1882 22.2468 32.9474 24.0049 32.9474 26.1898V49.602ZM17.3157 26.155L12.2007 26.1898V18.338H8.36146V45.6938H12.236V34.0045H9.89021V30.0638H17.3157V49.602H7.1894C5.00622 49.602 3.24698 47.8444 3.24698 45.6584V18.3734C3.24698 16.189 5.00622 14.4292 7.1894 14.4292H13.3745C15.5571 14.4292 17.3157 16.189 17.3157 18.3734V26.155ZM-0.661782 33.9692H-11.2127L-14.79 30.3913C-14.8231 30.3559 -14.8433 30.3088 -14.8433 30.2583C-14.8433 30.1501 -14.7558 30.0638 -14.6481 30.0638H-0.661782V33.9692ZM110.608 26.155H90.3946V18.338H85.3496V10.5216H72.4199V18.4967C71.9157 18.3941 71.393 18.3397 70.8608 18.338H59.9802C59.2584 18.338 58.5804 18.5253 57.991 18.8517C57.1207 18.5208 56.1763 18.338 55.1876 18.338H33.7943C33.0742 18.338 32.3962 18.5242 31.8068 18.8517C30.9364 18.5208 29.9937 18.338 29.0039 18.338H21.2234C21.2049 14.0126 17.7044 10.5216 13.3745 10.5216H7.1894C2.84603 10.5216 -0.661782 14.0311 -0.661782 18.3734V26.155H-23.6102C-23.8256 26.155 -24 26.3288 -24 26.5464C-24 26.6451 -23.9619 26.7365 -23.8704 26.8364L-12.8306 37.8796H-0.661782V45.6584C-0.661782 50.0013 2.84603 53.5107 7.1894 53.5107H43.5034V51.262C44.9183 52.6533 46.8626 53.5107 49.0099 53.5107H75.4779C76.1991 53.5107 76.8776 53.3234 77.4665 52.9971C78.3374 53.3285 79.2812 53.5107 80.2688 53.5107H90.3946V41.7878H85.3496L85.3182 37.8796H99.83L110.913 26.7915C110.969 26.7236 111 26.6384 111 26.5464C111 26.3288 110.824 26.155 110.608 26.155Z" fill="black"/>
<path d="M23.0273 80.6313V65.4472H31.409V68.4839H26.5907V71.1768H31.0243V74.2141H26.5907V80.6313H23.0273Z" fill="black"/>
<path d="M39.0639 69.8609C39.0639 68.9294 38.9826 67.8162 37.8089 67.8162C36.6749 67.8162 36.533 68.9294 36.533 69.8609V76.097C36.533 76.9673 36.6749 78.2628 37.829 78.2628C38.9826 78.2628 39.0639 76.9673 39.0639 76.097V69.8609ZM42.6272 75.793C42.6272 79.215 41.4327 80.9961 37.829 80.9961C34.2254 80.9961 32.9697 79.215 32.9697 75.793V69.6175C32.9697 66.7025 34.711 65.0823 37.829 65.0823C40.9465 65.0823 42.6272 66.7025 42.6272 69.6175V75.793Z" fill="black"/>
<path d="M47.8319 71.9053H49.0466C50.079 71.9053 50.3218 70.9542 50.3218 70.0227C50.3218 68.2203 49.5726 68.1396 47.8319 68.1799V71.9053ZM47.8319 80.6313H44.2686V65.4466H49.4716C52.3867 65.4466 53.8448 66.6209 53.8448 69.638C53.8448 71.2576 53.46 72.4112 51.9616 73.0998V73.1402C52.9542 73.3634 53.6619 74.0515 53.7231 75.1041C53.8246 76.3188 53.8448 78.9304 54.0472 79.9029C54.1285 80.1048 54.2295 80.287 54.391 80.4289V80.6313H50.5041C50.4026 80.3481 50.3218 80.0649 50.3016 79.761C50.2411 78.4246 50.3218 77.1695 50.2209 76.238C50.1194 75.3066 49.8356 74.6992 49.0062 74.6387H47.8319V80.6313Z" fill="black"/>
<path d="M55.1221 65.4472H64.3545V68.4839H61.4793V80.6313H57.9154V68.4839H55.1221V65.4472Z" fill="black"/>
</g>
<defs>
<clipPath id="clip0_15_387">
<rect width="90" height="90" rx="10" fill="white"/>
</clipPath>
</defs>
</svg>
