<svg width="156" height="81" viewBox="0 0 156 81" fill="none" xmlns="http://www.w3.org/2000/svg">
<g clip-path="url(#clip0_202_2020)">
<path d="M127.679 58.3828H26.9746V53.8895H127.679V58.3828Z" fill="#FAB20B"/>
<path d="M55.457 40.4255H59.935V26.9903H55.457V40.4255Z" fill="#FAB20B"/>
<path d="M85.7168 40.4255H90.1915V26.9903H85.7168V40.4255Z" fill="#FAB20B"/>
<path d="M145.355 22.8375L141.223 26.9497H126.319V22.461H145.193C145.316 22.461 145.416 22.5603 145.416 22.6847C145.416 22.7427 145.395 22.7968 145.355 22.8375ZM127.674 40.4255V44.9174H120.488C117.965 44.9174 115.933 42.8974 115.933 40.3849V4.49137H121.844V13.4765H127.674V18.7877C127.674 18.9121 127.574 19.012 127.45 19.012C126.085 18.3358 124.666 17.9684 123.159 17.9684H121.844V40.4255H127.674ZM114.952 44.9174H108.254V17.9684H103.74V44.9174H97.8707V17.9684C97.8707 16.4653 97.4981 15.048 96.8449 13.8033C96.8183 13.5764 96.92 13.4765 97.0438 13.4765H109.61C112.107 13.481 114.122 15.4837 114.125 17.9575V40.4255C114.125 41.9247 114.498 43.3428 115.149 44.5855C115.179 44.8175 115.078 44.9174 114.952 44.9174ZM96.064 44.9174H84.3618C81.8396 44.9174 79.8061 42.8974 79.8061 40.3849V26.9903C79.8061 24.4817 81.8396 22.461 84.3618 22.461H90.1915V18.0084H84.8121C83.6249 18.1212 82.5039 18.4602 81.4949 18.9862C81.2616 19.012 81.1598 18.9127 81.1598 18.7896V13.4765H91.5057C94.0311 13.4765 96.064 15.4972 96.064 18.0084V44.9174ZM78 19.3149C75.5051 19.3149 73.4832 21.3247 73.4832 23.8075V44.9174H67.6114V17.9684C67.6114 16.4582 67.2375 15.0338 66.5745 13.7853C66.5596 13.5764 66.6607 13.4765 66.7845 13.4765H73.4832V16.0451C75.113 14.4556 77.3449 13.4765 79.8061 13.4765V19.6888C79.2533 19.449 78.6403 19.3149 78 19.3149ZM65.8059 44.9174H54.1044C51.5803 44.9174 49.5493 42.8974 49.5493 40.3849V26.9903C49.5493 24.4817 51.5803 22.461 54.1044 22.461H59.9354V18.0084H54.5567C53.3676 18.1212 52.2471 18.4602 51.2381 18.9862C51.0042 19.012 50.9037 18.9127 50.9037 18.7896V13.4765H61.249C63.7731 13.4765 65.8059 15.4972 65.8059 18.0084V44.9174ZM47.7426 17.9684L41.8319 18.0084V8.98396H37.3955V40.4255H41.8727V26.9903H39.162V22.461H47.7426V44.9174H36.0411C33.5183 44.9174 31.4854 42.8974 31.4854 40.3849V9.02457C31.4854 6.514 33.5183 4.49137 36.0411 4.49137H43.1883C45.7104 4.49137 47.7426 6.514 47.7426 9.02457V17.9684ZM26.9686 26.9497H14.7765L10.6427 22.8375C10.6044 22.7968 10.5811 22.7427 10.5811 22.6847C10.5811 22.5603 10.6822 22.461 10.8066 22.461H26.9686V26.9497ZM155.547 17.9684H132.189V8.98396H126.36V8.7738e-05H111.419V9.16635C110.836 9.04839 110.232 8.98588 109.617 8.98396H97.0438C96.2098 8.98396 95.4263 9.19922 94.7452 9.57436C93.7395 9.19407 92.6482 8.98396 91.5057 8.98396H66.7845C65.9524 8.98396 65.1689 9.19793 64.4879 9.57436C63.4821 9.19407 62.3928 8.98396 61.249 8.98396H52.2581C52.2368 4.01248 48.1917 8.7738e-05 43.1883 8.7738e-05H36.0411C31.0221 8.7738e-05 26.9686 4.03374 26.9686 9.02457V17.9684H0.450402C0.201553 17.9684 0 18.1683 0 18.4183C0 18.5318 0.0440742 18.6368 0.149709 18.7516L12.9069 31.4442H26.9686V40.3849C26.9686 45.3764 31.0221 49.41 36.0411 49.41H78.0039V46.8254C79.6389 48.4245 81.8856 49.41 84.367 49.41H114.952C115.786 49.41 116.57 49.1947 117.25 48.8196C118.257 49.2005 119.347 49.41 120.488 49.41H132.189V35.9362H126.36L126.323 31.4442H143.092L155.9 18.7C155.964 18.622 156 18.5241 156 18.4183C156 18.1683 155.797 17.9684 155.547 17.9684Z" fill="#FAB20B"/>
<path d="M54.3428 80.581V63.129H64.0283V66.6192H58.4604V69.7144H63.5838V73.2053H58.4604V80.581H54.3428Z" fill="#FAB20B"/>
<path d="M72.8732 68.2017C72.8732 67.1311 72.7793 65.8516 71.4229 65.8516C70.1126 65.8516 69.9487 67.1311 69.9487 68.2017V75.3692C69.9487 76.3695 70.1126 77.8585 71.4463 77.8585C72.7793 77.8585 72.8732 76.3695 72.8732 75.3692V68.2017ZM76.9908 75.0198C76.9908 78.9529 75.6105 81 71.4463 81C67.282 81 65.8311 78.9529 65.8311 75.0198V67.9219C65.8311 64.5715 67.8432 62.7094 71.4463 62.7094C75.0487 62.7094 76.9908 64.5715 76.9908 67.9219V75.0198Z" fill="#FAB20B"/>
<path d="M83.0053 70.5521H84.4089C85.602 70.5521 85.8826 69.4589 85.8826 68.3883C85.8826 66.3167 85.0168 66.2239 83.0053 66.2703V70.5521ZM83.0053 80.5814H78.8877V63.1287H84.9002C88.2686 63.1287 89.9535 64.4784 89.9535 67.9461C89.9535 69.8076 89.509 71.1335 87.7774 71.925V71.9714C88.9245 72.2279 89.7423 73.0188 89.8129 74.2286C89.9302 75.6248 89.9535 78.6265 90.1875 79.7441C90.2814 79.9762 90.3981 80.1857 90.5847 80.3487V80.5814H86.0932C85.9759 80.2559 85.8826 79.9304 85.8592 79.5811C85.7893 78.0451 85.8826 76.6026 85.7659 75.5319C85.6486 74.4613 85.3207 73.7633 84.3623 73.6937H83.0053V80.5814Z" fill="#FAB20B"/>
<path d="M91.4297 63.1287H102.098V66.619H98.7758V80.5808H94.6575V66.619H91.4297V63.1287Z" fill="#FAB20B"/>
</g>
<defs>
<clipPath id="clip0_202_2020">
<rect width="156" height="81" fill="white"/>
</clipPath>
</defs>
</svg>
