<svg width="80" height="80" viewBox="0 0 80 80" fill="none" xmlns="http://www.w3.org/2000/svg">
<path fill-rule="evenodd" clip-rule="evenodd" d="M42.2225 0.107516C40.8673 0.523848 39.8196 1.58838 39.238 3.14012C38.7842 4.35063 38.548 6.36564 38.6662 8.0172L38.7684 9.44643L37.8387 11.7722C34.7626 19.4672 30.9514 26.8302 28.0392 30.7046C27.4015 31.5529 26.274 32.8266 25.5336 33.5352C24.0219 34.9819 23.3032 35.8963 22.2344 37.7334L21.5 38.9954L20.4464 38.6369C19.4189 38.2876 19.2386 38.2785 13.1902 38.2746C6.58953 38.2702 6.20454 38.3068 4.68134 39.0811C3.345 39.7604 1.9842 41.3802 1.35326 43.0424C1.07094 43.7859 1.05386 44.5341 1.00918 58.1405C0.980181 67.0101 1.02094 72.8337 1.11656 73.4483C1.57946 76.4213 4.01168 78.844 6.96104 79.2697C7.50467 79.3481 10.3479 79.4126 13.2792 79.4129C19.1145 79.4134 20.0988 79.3092 21.5118 78.5416L22.2886 78.1195L25.1515 78.4598C32.4809 79.3311 37.6252 79.6548 48.0223 79.899C53.755 80.0337 56.1858 80.0337 57.8196 79.8987C64.2897 79.3642 69.1347 77.3142 71.5943 74.0702C72.9916 72.2271 73.5536 70.5279 73.5767 68.0756C73.5911 66.5349 73.5991 66.5025 74.1015 65.9634C75.5421 64.4168 76.6288 62.5157 77.0584 60.7903C77.4153 59.3565 77.3913 57.0841 77.0032 55.5693L76.6923 54.356L77.1697 53.6635C78.4398 51.8211 79.1333 49.481 78.9786 47.5603C78.857 46.0486 78.2339 44.1617 77.464 42.9727L76.8268 41.9887L77.0626 41.2983C77.716 39.3842 77.7102 36.9589 77.0475 35.1414C76.6243 33.98 75.4569 32.3564 74.4347 31.5073C70.5533 28.2829 62.9823 27.5715 53.1384 29.5064C51.8214 29.7652 50.6453 29.9773 50.5248 29.9777C50.3462 29.9781 50.3247 29.7309 50.4088 28.6407C50.5365 26.9817 50.9986 25.0112 52.2047 20.982C53.3823 17.0477 53.7469 15.3652 53.9416 12.965C54.1088 10.9037 53.9841 9.09503 53.5663 7.52671C52.6309 4.01566 49.8136 1.2265 46.2978 0.331249C45.0436 0.0119207 42.9146 -0.104953 42.2225 0.107516ZM45.5357 4.80326C47.8775 5.59055 49.0721 7.24368 49.3975 10.1472C49.6642 12.5257 49.2115 15.2336 47.7803 19.8208C46.2751 24.6451 45.7166 27.6148 45.8415 30.13C45.987 33.061 47.31 34.6676 49.5809 34.6711C49.8896 34.6715 51.3709 34.4235 52.8728 34.12C57.5009 33.1844 58.7087 33.0511 62.6574 33.0397C65.5598 33.0312 66.5371 33.0849 67.6701 33.3147C72.3924 34.2727 74.0939 36.9766 72.3712 40.7848C71.5948 42.5011 71.6399 42.824 72.867 44.3274C75.0535 47.0067 74.9621 49.3854 72.5632 52.2323C71.705 53.2508 71.6222 54.0809 72.2392 55.4851C72.6385 56.394 72.6842 56.6741 72.6869 58.2188C72.6896 59.8077 72.6545 60.0115 72.2304 60.8748C71.9147 61.5177 71.3421 62.2309 70.398 63.1572C69.5888 63.9512 68.9789 64.6872 68.9129 64.9491C68.8514 65.1936 68.8901 66.0411 68.9991 66.8327C69.2304 68.515 69.0867 69.4751 68.4203 70.6972C67.2815 72.7857 64.2561 74.346 59.79 75.1485C58.4787 75.3841 57.3679 75.4175 51.7628 75.3893C41.0448 75.3356 32.7889 74.8933 25.8981 74.0039L25.1927 73.9128L25.2438 60.0423C25.2795 50.353 25.2408 45.6708 25.1153 44.5103C24.9362 42.8559 24.9373 42.8444 25.3858 41.6941C26.1806 39.6559 27.0402 38.3966 28.9517 36.4709C31.9113 33.4896 34.28 29.9428 37.2519 24.0428C39.1121 20.3499 40.776 16.6431 42.2582 12.8893L43.2916 10.2725L43.2555 7.96087C43.2358 6.68951 43.2757 5.38528 43.3442 5.06251C43.4595 4.52054 43.5106 4.47579 44.0155 4.47579C44.316 4.47579 45.0002 4.62318 45.5357 4.80326ZM19.4727 43.1598C19.7577 43.3535 20.1384 43.7105 20.3188 43.9535C20.646 44.3942 20.6468 44.4301 20.6468 58.7501V73.105L20.2242 73.7424C19.4752 74.8722 19.2869 74.9 12.7811 74.8483C7.33491 74.8049 7.09272 74.7904 6.67732 74.4806C6.43936 74.3032 6.0992 73.9637 5.92144 73.726C5.60119 73.2981 5.5979 73.1601 5.55667 59.0187L5.51497 44.7436L5.8741 44.066C6.54392 42.8016 6.50818 42.8078 13.1361 42.8078C18.912 42.8078 18.9582 42.8103 19.4727 43.1598Z" fill="url(#paint0_linear_202_2276)"/>
<defs>
<linearGradient id="paint0_linear_202_2276" x1="1" y1="40" x2="79" y2="40" gradientUnits="userSpaceOnUse">
<stop stop-color="#FDB813"/>
<stop offset="1" stop-color="#FF7246"/>
</linearGradient>
</defs>
</svg>
