<svg width="80" height="88" viewBox="0 0 80 88" fill="none" xmlns="http://www.w3.org/2000/svg">
<g clip-path="url(#clip0_202_2267)" filter="url(#filter0_d_202_2267)">
<path fill-rule="evenodd" clip-rule="evenodd" d="M38.6039 1.21649C38.2201 1.32174 36.6351 2.14578 35.0818 3.04759L32.2577 4.68719L28.5644 4.73595L24.8712 4.78471L23.8349 5.29272C23.2442 5.58221 22.5791 6.05689 22.2882 6.39638C22.0073 6.72399 21.063 8.23921 20.1895 9.76337L18.6013 12.5347L15.7942 14.1379C14.2502 15.0196 12.7172 15.9696 12.3875 16.2491C12.0446 16.5396 11.5695 17.1986 11.2775 17.7885L10.7669 18.82L10.7137 22.5024L10.6604 26.1846L9.04864 28.9563C7.24195 32.0632 6.87937 33.0254 7.03104 34.3104C7.16131 35.4123 7.39703 35.9213 9.15161 38.8883L10.6119 41.3573L10.7043 45.0609C10.7786 48.0348 10.8501 48.9087 11.0675 49.4965C11.482 50.6171 12.5462 51.6737 14.2733 52.6797L15.794 53.5655L11.6785 60.6553C9.41509 64.5547 7.42309 68.0146 7.25188 68.3439C6.89814 69.0244 6.95846 69.787 7.39719 70.1822C8.06589 70.7844 8.26362 70.7736 13.9653 69.8252C17.6348 69.2148 19.4738 68.9681 19.5415 69.0769C19.5971 69.1664 20.5049 71.5353 21.5591 74.341C23.2824 78.9277 23.5232 79.4715 23.9449 79.7274C24.6111 80.1317 25.1827 80.0869 25.7184 79.5888C25.9693 79.3555 28.001 76.0048 30.2333 72.1431C32.4655 68.2814 34.3883 64.97 34.5063 64.7845C34.7205 64.4479 34.7256 64.4496 36.483 65.4443C37.734 66.1526 38.499 66.4828 39.1222 66.5838C40.5734 66.8188 41.5234 66.5725 43.5162 65.4443C45.2736 64.4496 45.2787 64.4479 45.4929 64.7845C45.6109 64.97 47.5337 68.2814 49.766 72.1431C51.9982 76.0048 54.0299 79.3555 54.2808 79.5888C54.8165 80.0869 55.3881 80.1317 56.0543 79.7274C56.476 79.4715 56.7168 78.9277 58.4401 74.341C59.4943 71.5353 60.4021 69.1664 60.4577 69.0769C60.5254 68.9681 62.3644 69.2148 66.0339 69.8252C71.7356 70.7736 71.9333 70.7844 72.602 70.1822C73.0407 69.787 73.1011 69.0244 72.7473 68.3439C72.5761 68.0146 70.5841 64.5547 68.3207 60.6553L64.2052 53.5655L65.7107 52.6879C68.9258 50.814 69.3098 49.9698 69.3098 44.7757V41.5464L70.8571 38.8945C72.6568 35.8099 72.8374 35.4164 72.9699 34.2954C73.1197 33.0273 72.7509 32.052 70.9506 28.9563L69.3388 26.1846L69.2855 22.5024L69.2323 18.82L68.7218 17.7885C68.4316 17.2024 67.9532 16.5378 67.6137 16.2491C67.2849 15.9696 65.7515 15.0189 64.206 14.136L61.3957 12.531L59.8087 9.76152C58.9357 8.23828 57.9919 6.72399 57.711 6.39638C57.4201 6.05689 56.7548 5.58221 56.1643 5.29272L55.128 4.78471L51.4021 4.70756L47.6761 4.6304L44.8071 2.98C41.3383 0.984559 40.4099 0.72068 38.6039 1.21649ZM43.8561 6.00365L46.9516 7.79385H50.6505C53.9344 7.79385 54.4086 7.82549 54.8769 8.07532C55.3059 8.30433 55.7544 8.95831 57.2782 11.5766L59.152 14.7963L62.4033 16.6707C65.3539 18.3715 65.6798 18.6008 65.9274 19.1491C66.1621 19.6691 66.2006 20.2562 66.2042 23.3625L66.2082 26.9718L68.0093 30.0587C69.0975 31.9236 69.839 33.366 69.8824 33.7022C69.9455 34.192 69.7296 34.6477 68.0825 37.4995L66.211 40.7401L66.2096 44.3328C66.2082 48.0925 66.13 48.6205 65.493 49.1726C65.332 49.3121 63.944 50.1388 62.4087 51.0097C60.8734 51.8805 59.4644 52.7385 59.2774 52.9163C59.0903 53.094 58.1954 54.5242 57.2886 56.0944C56.3817 57.6645 55.469 59.1228 55.2605 59.335L54.8811 59.7208L50.8909 59.8027L46.9007 59.8848L43.8171 61.6854C42.1211 62.6758 40.5407 63.5282 40.3051 63.5797C39.7228 63.7069 39.2867 63.5037 35.9675 61.5574L33.0985 59.8751L29.5317 59.8399C27.5699 59.8205 25.809 59.803 25.6184 59.8013C25.0033 59.7953 24.3832 59.0058 22.7061 56.0944C21.8018 54.5242 20.9089 53.094 20.7219 52.9163C20.5348 52.7385 19.1258 51.8805 17.5905 51.0097C16.0552 50.1388 14.6672 49.3121 14.5062 49.1726C13.8692 48.6205 13.791 48.0925 13.7896 44.3328L13.7882 40.7401L11.9167 37.4995C10.267 34.6431 10.0536 34.1926 10.1171 33.7004C10.161 33.3595 10.8758 31.9765 11.9513 30.1511L13.7135 27.1604L13.791 23.2253C13.8583 19.813 13.9045 19.2391 14.1392 18.9045C14.288 18.6923 15.8582 17.6814 17.6285 16.658L20.8472 14.7974L22.7139 11.5809C24.245 8.94288 24.6769 8.31312 25.1153 8.07918C25.5925 7.82456 26.0469 7.79385 29.3462 7.79385H33.0425L36.0947 6.04223C37.7733 5.07899 39.2513 4.24754 39.3793 4.19492C40.0204 3.93074 40.8558 4.26838 43.8561 6.00365ZM38.1386 11.1917C36.3236 11.3303 35.2388 11.5397 33.3066 12.1244C30.3764 13.0112 29.144 13.7714 29.144 14.6919C29.144 15.494 29.8466 16.2719 30.5766 16.2778C30.8102 16.2796 31.6102 16.0304 32.3543 15.7238C41.5734 11.9266 52.0542 15.4476 57.0909 24.0341C58.3089 26.1104 59.3257 29.1015 59.6095 31.4426L59.7172 32.3299H40.0108C23.7633 32.3299 20.3044 32.2941 20.3044 32.1256C20.3044 30.8943 21.3414 27.0047 22.0278 25.662C22.4678 24.8012 22.4125 24.0648 21.8671 23.5221C21.2817 22.9395 20.5179 22.9121 19.875 23.4505C19.2898 23.9404 18.257 26.4943 17.7001 28.8283C17.325 30.4007 17.2878 30.8386 17.2842 33.7187C17.2798 37.2766 17.4616 38.4935 18.402 41.203C20.7318 47.9152 26.0244 53.1516 32.7237 55.3727C35.5713 56.3167 36.6275 56.4772 39.9996 56.4788C42.6025 56.48 43.2479 56.4302 44.6336 56.1215C47.8259 55.4103 50.8438 54.085 53.371 52.2847C54.9832 51.1361 57.3483 48.7826 58.5026 47.1784C60.2792 44.709 61.7323 41.4251 62.4097 38.3482C62.7504 36.8003 62.8865 32.6321 62.6533 30.8878C61.8483 24.8679 58.6319 19.3766 53.7811 15.7406C50.2045 13.0597 46.2233 11.5536 41.7604 11.1929C40.682 11.1058 39.7572 11.0445 39.7057 11.0568C39.6541 11.0692 38.9489 11.13 38.1386 11.1917ZM23.8593 17.8124C23.2432 18.4255 23.2404 19.1781 23.8515 19.8588C24.198 20.2446 24.4222 20.3551 24.8586 20.3551C25.8756 20.3551 26.6714 19.4204 26.4389 18.4988C26.1477 17.3442 24.7133 16.9626 23.8593 17.8124ZM59.6948 35.6275C59.6948 36.8248 58.7851 40.2086 57.988 41.9766L57.5367 42.9776H39.9996H22.4625L22.0112 41.9766C21.2141 40.2086 20.3044 36.8248 20.3044 35.6275C20.3044 35.4498 23.4338 35.4162 39.9996 35.4162C56.5655 35.4162 59.6948 35.4498 59.6948 35.6275ZM55.2119 46.3459C54.9312 46.8677 52.1686 49.3754 51.0807 50.0959C48.8665 51.5623 46.1631 52.6834 43.644 53.1798C42.9838 53.3101 41.5558 53.3939 39.9996 53.3939C38.4434 53.3939 37.0154 53.3101 36.3552 53.1798C33.8361 52.6834 31.1327 51.5623 28.9185 50.0959C27.8306 49.3754 25.068 46.8677 24.7873 46.3459C24.6411 46.0736 25.1694 46.0639 39.9996 46.0639C54.8298 46.0639 55.3582 46.0736 55.2119 46.3459ZM20.2537 58.0289C21.9555 60.9646 22.1373 61.2201 23.0183 61.9178C24.1543 62.8174 24.6514 62.9058 28.4849 62.8904C30.3828 62.8827 31.9354 62.9103 31.9354 62.9517C31.9354 63.0594 25.2918 74.4949 25.1435 74.6424C25.0757 74.7098 24.2975 72.8525 23.4142 70.5149C21.7111 66.0077 21.5094 65.6619 20.5834 65.6619C20.3334 65.6619 18.24 65.9767 15.9313 66.3614C13.6226 66.7463 11.7063 67.0338 11.6728 67.0004C11.623 66.9509 14.0469 62.7159 17.8574 56.195C18.197 55.6137 18.5323 55.197 18.6024 55.2691C18.6725 55.341 19.4156 56.5829 20.2537 58.0289ZM65.0364 61.1703C66.8791 64.3439 68.3593 66.9677 68.3261 67.0009C68.2928 67.0339 66.3766 66.7463 64.0679 66.3614C61.7593 65.9767 59.6658 65.6619 59.4158 65.6619C58.4934 65.6619 58.2904 66.0088 56.5817 70.5088C55.6948 72.8443 54.9159 74.7023 54.8507 74.6375C54.7057 74.4932 48.0638 63.0571 48.0638 62.9517C48.0638 62.9103 49.6165 62.8827 51.5143 62.8904C54.2972 62.9015 55.0978 62.8569 55.652 62.6597C56.384 62.3994 57.2687 61.8091 57.7225 61.2784C57.9801 60.9774 59.2279 58.9296 60.7729 56.2722C61.1355 55.6484 61.4894 55.197 61.5592 55.2691C61.6291 55.341 63.1939 57.9966 65.0364 61.1703Z" fill="url(#paint0_linear_202_2267)" stroke="url(#paint1_linear_202_2267)"/>
</g>
<defs>
<filter id="filter0_d_202_2267" x="-4" y="0" width="88" height="88" filterUnits="userSpaceOnUse" color-interpolation-filters="sRGB">
<feFlood flood-opacity="0" result="BackgroundImageFix"/>
<feColorMatrix in="SourceAlpha" type="matrix" values="0 0 0 0 0 0 0 0 0 0 0 0 0 0 0 0 0 0 127 0" result="hardAlpha"/>
<feOffset dy="4"/>
<feGaussianBlur stdDeviation="2"/>
<feComposite in2="hardAlpha" operator="out"/>
<feColorMatrix type="matrix" values="0 0 0 0 0 0 0 0 0 0 0 0 0 0 0 0 0 0 0.25 0"/>
<feBlend mode="normal" in2="BackgroundImageFix" result="effect1_dropShadow_202_2267"/>
<feBlend mode="normal" in="SourceGraphic" in2="effect1_dropShadow_202_2267" result="shape"/>
</filter>
<linearGradient id="paint0_linear_202_2267" x1="7" y1="40.5" x2="73" y2="40.5" gradientUnits="userSpaceOnUse">
<stop stop-color="#FDB813"/>
<stop offset="1" stop-color="#FF7246"/>
</linearGradient>
<linearGradient id="paint1_linear_202_2267" x1="7" y1="40.5" x2="73" y2="40.5" gradientUnits="userSpaceOnUse">
<stop stop-color="#FDB813"/>
<stop offset="1" stop-color="#FF7246"/>
</linearGradient>
<clipPath id="clip0_202_2267">
<rect width="80" height="80" fill="white"/>
</clipPath>
</defs>
</svg>
