<svg width="36" height="46" viewBox="0 0 36 46" fill="none" xmlns="http://www.w3.org/2000/svg">
<path fill-rule="evenodd" clip-rule="evenodd" d="M17.4975 0.915856C17.3828 0.95754 13.5757 2.60652 9.03713 4.58016C2.5792 7.38854 0.726513 8.22816 0.515296 8.44225C-0.0365002 9.00167 -0.0234972 8.82787 0.0170957 15.1017C0.0549379 20.9579 0.0851117 21.5435 0.454615 23.5959C1.5067 29.4403 4.19399 34.7808 8.18277 38.9544C10.5819 41.4648 13.2425 43.3914 16.4555 44.945C17.3446 45.375 17.516 45.4287 17.9976 45.4286C18.4788 45.4286 18.6545 45.3735 19.5684 44.9363C28.9435 40.4518 35.1163 31.1963 35.9181 20.4221C35.9641 19.8035 36.001 17.0565 36 14.3177C35.9982 9.6565 35.9883 9.31544 35.8438 8.98894C35.7589 8.79709 35.5797 8.53242 35.4457 8.40082C35.2773 8.23557 32.6255 7.04067 26.8707 4.53708C18.3616 0.835103 18.05 0.714759 17.4975 0.915856ZM25.3743 7.66515L32.626 10.8231L32.6218 15.7052C32.6178 20.3222 32.6073 20.6559 32.4301 21.8518C32.3269 22.5473 32.1522 23.5283 32.0417 24.0319C30.3769 31.6214 25.5204 38.0215 18.8413 41.4283L17.9888 41.8631L16.8888 41.2812C10.1401 37.7109 5.3281 31.1549 3.83158 23.4915C3.40564 21.3102 3.37064 20.7139 3.36988 15.6195L3.36913 10.8261L10.6208 7.66829C14.6093 5.9315 17.9288 4.50978 17.9976 4.50891C18.0663 4.50804 21.3859 5.92836 25.3743 7.66515ZM23.8323 16.3216C23.6498 16.4038 22.1596 17.8957 19.8536 20.305L16.1666 24.1572L14.3106 22.2324C12.8035 20.6695 12.3803 20.2785 12.0593 20.1525C10.7953 19.6563 9.55542 20.8901 9.91167 22.2895C10 22.6364 10.2933 22.9769 12.5249 25.3233C13.9074 26.777 15.1697 28.0518 15.3301 28.1562C15.7038 28.3994 16.488 28.4187 16.9167 28.1951C17.0786 28.1107 19.1831 25.9719 21.5933 23.4424C25.6409 19.1944 25.9835 18.8118 26.0807 18.4323C26.4498 16.992 25.1187 15.7423 23.8323 16.3216Z" fill="#333333"/>
</svg>
